{
  "accessors": [
    {
      "bufferView": 2,
      "componentType": 5126,
      "count": 65532,
      "max": [
        24.014999389648438,
        21.66891860961914,
        9.280641555786133
      ],
      "min": [
        4.681300640106201,
        0.0,
        0.06871497631072998
      ],
      "type": "VEC3"
    },
    {
      "bufferView": 2,
      "byteOffset": 786384,
      "componentType": 5126,
      "count": 65532,
      "max": [
        0.9999923706054688,
        0.9998300075531006,
        0.9999845027923584
      ],
      "min": [
        -0.9987457394599915,
        -0.9999802112579346,
        -0.999967634677887
      ],
      "type": "VEC3"
    },
    {
      "bufferView": 1,
      "componentType": 5126,
      "count": 65532,
      "max": [
        0.9985349774360657,
        0.9970139861106873
      ],
      "min": [
        0.0014649999793618917,
        0.0025599999353289604
      ],
      "type": "VEC2"
    },
    {
      "bufferView": 0,
      "componentType": 5125,
      "count": 336822,
      "type": "SCALAR"
    },
    {
      "bufferView": 2,
      "byteOffset": 1572768,
      "componentType": 5126,
      "count": 65532,
      "max": [
        22.96712875366211,
        23.478378295898438,
        9.06414794921875
      ],
      "min": [
        0.0,
        0.6622591018676758,
        0.022047996520996094
      ],
      "type": "VEC3"
    },
    {
      "bufferView": 2,
      "byteOffset": 2359152,
      "componentType": 5126,
      "count": 65532,
      "max": [
        0.9984582662582397,
        0.9999577403068542,
        0.9998809099197388
      ],
      "min": [
        -0.9999922513961792,
        -0.9999452233314514,
        -0.9994720220565796
      ],
      "type": "VEC3"
    },
    {
      "bufferView": 1,
      "byteOffset": 524256,
      "componentType": 5126,
      "count": 65532,
      "max": [
        0.9985349774360657,
        0.997439980506897
      ],
      "min": [
        0.0014649999793618917,
        0.0025599999353289604
      ],
      "type": "VEC2"
    },
    {
      "bufferView": 0,
      "byteOffset": 1347288,
      "componentType": 5125,
      "count": 324105,
      "type": "SCALAR"
    },
    {
      "bufferView": 2,
      "byteOffset": 3145536,
      "componentType": 5126,
      "count": 64647,
      "max": [
        23.125776290893555,
        23.47555160522461,
        9.241052627563477
      ],
      "min": [
        0.008220672607421875,
        0.8714208602905273,
        0.0
      ],
      "type": "VEC3"
    },
    {
      "bufferView": 2,
      "byteOffset": 3921300,
      "componentType": 5126,
      "count": 64647,
      "max": [
        0.9999784827232361,
        0.9999983310699463,
        0.999984860420227
      ],
      "min": [
        -0.999987781047821,
        -0.9999452233314514,
        -0.9994720220565796
      ],
      "type": "VEC3"
    },
    {
      "bufferView": 1,
      "byteOffset": 1048512,
      "componentType": 5126,
      "count": 64647,
      "max": [
        0.9985349774360657,
        0.9970139861106873
      ],
      "min": [
        0.0014649999793618917,
        0.0025599999353289604
      ],
      "type": "VEC2"
    },
    {
      "bufferView": 0,
      "byteOffset": 2643708,
      "componentType": 5125,
      "count": 331521,
      "type": "SCALAR"
    }
  ],
  "asset": {
    "extras": {
      "author": "thehydrous (https://sketchfab.com/thehydro.us)",
      "license": "CC-BY-NC-SA-4.0 (http://creativecommons.org/licenses/by-nc-sa/4.0/)",
      "source": "https://sketchfab.com/3d-models/fungia-fungites-8b668cc3419740ccac20413cfe306917",
      "title": "Fungia fungites"
    },
    "generator": "Sketchfab-12.68.0",
    "version": "2.0"
  },
  "bufferViews": [
    {
      "buffer": 0,
      "byteLength": 3969792,
      "name": "floatBufferViews",
      "target": 34963
    },
    {
      "buffer": 0,
      "byteLength": 1565688,
      "byteOffset": 3969792,
      "byteStride": 8,
      "name": "floatBufferViews",
      "target": 34962
    },
    {
      "buffer": 0,
      "byteLength": 4697064,
      "byteOffset": 5535480,
      "byteStride": 12,
      "name": "floatBufferViews",
      "target": 34962
    }
  ],
  "buffers": [
    {
      "byteLength": 10232544,
      "uri": "scene.bin"
    }
  ],
  "extensionsUsed": [
    "KHR_materials_unlit"
  ],
  "images": [
    {
      "uri": "textures/Material_0_baseColor.jpeg"
    }
  ],
  "materials": [
    {
      "doubleSided": true,
      "extensions": {
        "KHR_materials_unlit": {}
      },
      "name": "Material_0",
      "pbrMetallicRoughness": {
        "baseColorTexture": {
          "index": 0
        },
        "metallicFactor": 0.0
      }
    }
  ],
  "meshes": [
    {
      "name": "Object_0",
      "primitives": [
        {
          "attributes": {
            "NORMAL": 1,
            "POSITION": 0,
            "TEXCOORD_0": 2
          },
          "indices": 3,
          "material": 0,
          "mode": 4
        }
      ]
    },
    {
      "name": "Object_1",
      "primitives": [
        {
          "attributes": {
            "NORMAL": 5,
            "POSITION": 4,
            "TEXCOORD_0": 6
          },
          "indices": 7,
          "material": 0,
          "mode": 4
        }
      ]
    },
    {
      "name": "Object_2",
      "primitives": [
        {
          "attributes": {
            "NORMAL": 9,
            "POSITION": 8,
            "TEXCOORD_0": 10
          },
          "indices": 11,
          "material": 0,
          "mode": 4
        }
      ]
    }
  ],
  "nodes": [
    {
      "children": [
        1
      ],
      "matrix": [
        0.04953852295875549,
        -1.0999761758946463e-17,
        2.5032882673413917e-17,
        0.0,
        2.503288267341392e-17,
        2.503288267341392e-17,
        -0.04953852295875549,
        0.0,
        1.0999761758946457e-17,
        0.04953852295875549,
        2.503288267341392e-17,
        0.0,
        -1.2366884317820126e-15,
        3.503289138331918e-31,
        -1.5777411657962731e-15,
        1.0
      ],
      "name": "Sketchfab_model"
    },
    {
      "children": [
        2,
        3,
        4
      ],
      "matrix": [
        1.0,
        0.0,
        0.0,
        0.0,
        0.0,
        1.0,
        0.0,
        0.0,
        0.0,
        0.0,
        1.0,
        0.0,
        -12.007500648498535,
        -11.739190101623535,
        0.9292640089988708,
        1.0
      ],
      "name": "CASIZ 098608.obj.cleaner.materialmerger.gles"
    },
    {
      "mesh": 0,
      "name": "Object_2"
    },
    {
      "mesh": 1,
      "name": "Object_3"
    },
    {
      "mesh": 2,
      "name": "Object_4"
    }
  ],
  "samplers": [
    {
      "magFilter": 9729,
      "minFilter": 9987,
      "wrapS": 10497,
      "wrapT": 10497
    }
  ],
  "scene": 0,
  "scenes": [
    {
      "name": "Sketchfab_Scene",
      "nodes": [
        0
      ]
    }
  ],
  "textures": [
    {
      "sampler": 0,
      "source": 0
    }
  ]
}
