{
  "accessors": [
    {
      "bufferView": 2,
      "componentType": 5126,
      "count": 65532,
      "max": [
        1.339704990386963,
        0.5804225206375122,
        1.1622649431228638
      ],
      "min": [
        -1.272396206855774,
        -0.7858315706253052,
        -0.9248014688491821
      ],
      "type": "VEC3"
    },
    {
      "bufferView": 2,
      "byteOffset": 786384,
      "componentType": 5126,
      "count": 65532,
      "max": [
        0.9999821782112122,
        0.9999141097068787,
        0.9999278783798218
      ],
      "min": [
        -0.9998671412467957,
        -0.9999951720237732,
        -0.9997785091400146
      ],
      "type": "VEC3"
    },
    {
      "bufferView": 1,
      "componentType": 5126,
      "count": 65532,
      "max": [
        0.9643693566322327,
        0.9903706908226013
      ],
      "min": [
        5.554070230573416e-05,
        2.3307278752326965e-05
      ],
      "type": "VEC2"
    },
    {
      "bufferView": 0,
      "componentType": 5125,
      "count": 355497,
      "type": "SCALAR"
    },
    {
      "bufferView": 2,
      "byteOffset": 1572768,
      "componentType": 5126,
      "count": 65532,
      "max": [
        0.9798025488853455,
        0.95213782787323,
        1.1507744789123535
      ],
      "min": [
        -1.2362165451049805,
        -0.8314118981361389,
        -1.098872184753418
      ],
      "type": "VEC3"
    },
    {
      "bufferView": 2,
      "byteOffset": 2359152,
      "componentType": 5126,
      "count": 65532,
      "max": [
        0.9999204277992249,
        0.9999973177909851,
        0.9999273419380188
      ],
      "min": [
        -0.9999967813491821,
        -0.9999766945838928,
        -0.9999950528144836
      ],
      "type": "VEC3"
    },
    {
      "bufferView": 1,
      "byteOffset": 524256,
      "componentType": 5126,
      "count": 65532,
      "max": [
        0.9919384717941284,
        0.9999956488609314
      ],
      "min": [
        2.826005220413208e-05,
        0.011259413324296474
      ],
      "type": "VEC2"
    },
    {
      "bufferView": 0,
      "byteOffset": 1421988,
      "componentType": 5125,
      "count": 354111,
      "type": "SCALAR"
    },
    {
      "bufferView": 2,
      "byteOffset": 3145536,
      "componentType": 5126,
      "count": 38131,
      "max": [
        1.1903172731399536,
        0.9269389510154724,
        1.1793380975723267
      ],
      "min": [
        -1.2375317811965942,
        -0.8056291937828064,
        -0.5895597338676453
      ],
      "type": "VEC3"
    },
    {
      "bufferView": 2,
      "byteOffset": 3603108,
      "componentType": 5126,
      "count": 38131,
      "max": [
        0.9995887279510498,
        0.9999369382858276,
        0.9999710321426392
      ],
      "min": [
        -0.9999972581863403,
        -0.9999931454658508,
        -0.9997928738594055
      ],
      "type": "VEC3"
    },
    {
      "bufferView": 1,
      "byteOffset": 1048512,
      "componentType": 5126,
      "count": 38131,
      "max": [
        0.9724031686782837,
        0.9999619722366333
      ],
      "min": [
        1.2936070561408997e-05,
        0.01734832115471363
      ],
      "type": "VEC2"
    },
    {
      "bufferView": 0,
      "byteOffset": 2838432,
      "componentType": 5125,
      "count": 179730,
      "type": "SCALAR"
    }
  ],
  "asset": {
    "extras": {
      "author": "John Merck (https://sketchfab.com/jmerck)",
      "license": "CC-BY-4.0 (http://creativecommons.org/licenses/by/4.0/)",
      "source": "https://sketchfab.com/3d-models/meandrina-sp-670efb4d9a974e2ca1df2138a8a936b9",
      "title": "Meandrina sp."
    },
    "generator": "Sketchfab-12.66.0",
    "version": "2.0"
  },
  "bufferViews": [
    {
      "buffer": 0,
      "byteLength": 3557352,
      "name": "floatBufferViews",
      "target": 34963
    },
    {
      "buffer": 0,
      "byteLength": 1353560,
      "byteOffset": 3557352,
      "byteStride": 8,
      "name": "floatBufferViews",
      "target": 34962
    },
    {
      "buffer": 0,
      "byteLength": 4060680,
      "byteOffset": 4910912,
      "byteStride": 12,
      "name": "floatBufferViews",
      "target": 34962
    }
  ],
  "buffers": [
    {
      "byteLength": 8971592,
      "uri": "scene.bin"
    }
  ],
  "extensionsUsed": [
    "KHR_materials_unlit"
  ],
  "images": [
    {
      "uri": "textures/material0_baseColor.jpeg"
    }
  ],
  "materials": [
    {
      "doubleSided": true,
      "extensions": {
        "KHR_materials_unlit": {}
      },
      "name": "material0",
      "pbrMetallicRoughness": {
        "baseColorTexture": {
          "index": 0
        },
        "metallicFactor": 0.0
      }
    }
  ],
  "meshes": [
    {
      "name": "Model_material0_0",
      "primitives": [
        {
          "attributes": {
            "NORMAL": 1,
            "POSITION": 0,
            "TEXCOORD_0": 2
          },
          "indices": 3,
          "material": 0,
          "mode": 4
        }
      ]
    },
    {
      "name": "Model_material0_0",
      "primitives": [
        {
          "attributes": {
            "NORMAL": 5,
            "POSITION": 4,
            "TEXCOORD_0": 6
          },
          "indices": 7,
          "material": 0,
          "mode": 4
        }
      ]
    },
    {
      "name": "Model_material0_0",
      "primitives": [
        {
          "attributes": {
            "NORMAL": 9,
            "POSITION": 8,
            "TEXCOORD_0": 10
          },
          "indices": 11,
          "material": 0,
          "mode": 4
        }
      ]
    }
  ],
  "nodes": [
    {
      "children": [
        1
      ],
      "matrix": [
        1.0,
        0.0,
        0.0,
        0.0,
        0.0,
        2.220446049250313e-16,
        -1.0,
        0.0,
        0.0,
        1.0,
        2.220446049250313e-16,
        0.0,
        0.0,
        0.0,
        0.0,
        1.0
      ],
      "name": "Sketchfab_model"
    },
    {
      "children": [
        2
      ],
      "matrix": [
        1.0,
        0.0,
        0.0,
        0.0,
        0.0,
        -1.0,
        0.0,
        0.0,
        0.0,
        0.0,
        -1.0,
        0.0,
        0.0,
        0.0,
        0.0,
        1.0
      ],
      "name": "model.fbx"
    },
    {
      "children": [
        3
      ],
      "name": "RootNode"
    },
    {
      "children": [
        4,
        5,
        6
      ],
      "name": "Model"
    },
    {
      "mesh": 0,
      "name": "Model_material0_0"
    },
    {
      "mesh": 1,
      "name": "Model_material0_0"
    },
    {
      "mesh": 2,
      "name": "Model_material0_0"
    }
  ],
  "samplers": [
    {
      "magFilter": 9729,
      "minFilter": 9987,
      "wrapS": 10497,
      "wrapT": 10497
    }
  ],
  "scene": 0,
  "scenes": [
    {
      "name": "Sketchfab_Scene",
      "nodes": [
        0
      ]
    }
  ],
  "textures": [
    {
      "sampler": 0,
      "source": 0
    }
  ]
}
