{
  "accessors": [
    {
      "bufferView": 2,
      "componentType": 5126,
      "count": 65532,
      "max": [
        0.26242899894714355,
        0.267657995223999,
        0.2187190055847168
      ],
      "min": [
        -0.2652280032634735,
        -0.26802900433540344,
        -0.21821199357509613
      ],
      "type": "VEC3"
    },
    {
      "bufferView": 2,
      "byteOffset": 786384,
      "componentType": 5126,
      "count": 65532,
      "max": [
        0.9999999403953552,
        1.0,
        0.9999900460243225
      ],
      "min": [
        -0.999999463558197,
        -0.999999463558197,
        -0.9999996423721313
      ],
      "type": "VEC3"
    },
    {
      "bufferView": 3,
      "componentType": 5126,
      "count": 65532,
      "max": [
        0.9999838471412659,
        0.999933660030365,
        0.9999997019767761,
        1.0
      ],
      "min": [
        -0.999949038028717,
        -0.9999900460243225,
        -0.9998701810836792,
        -1.0
      ],
      "type": "VEC4"
    },
    {
      "bufferView": 1,
      "componentType": 5126,
      "count": 65532,
      "max": [
        0.998046875,
        0.998046875
      ],
      "min": [
        0.001953125,
        0.003565073013305664
      ],
      "type": "VEC2"
    },
    {
      "bufferView": 1,
      "byteOffset": 524256,
      "componentType": 5126,
      "count": 65532,
      "max": [
        0.998046875,
        0.998046875
      ],
      "min": [
        0.001953125,
        0.003565073013305664
      ],
      "type": "VEC2"
    },
    {
      "bufferView": 1,
      "byteOffset": 1048512,
      "componentType": 5126,
      "count": 65532,
      "max": [
        0.998046875,
        0.998046875
      ],
      "min": [
        0.001953125,
        0.003565073013305664
      ],
      "type": "VEC2"
    },
    {
      "bufferView": 0,
      "componentType": 5125,
      "count": 276345,
      "type": "SCALAR"
    },
    {
      "bufferView": 2,
      "byteOffset": 1572768,
      "componentType": 5126,
      "count": 9954,
      "max": [
        0.2586880028247833,
        0.265269011259079,
        0.2045460045337677
      ],
      "min": [
        -0.26214298605918884,
        -0.26802900433540344,
        -0.21718299388885498
      ],
      "type": "VEC3"
    },
    {
      "bufferView": 2,
      "byteOffset": 1692216,
      "componentType": 5126,
      "count": 9954,
      "max": [
        0.9999997615814209,
        0.9999956488609314,
        0.9999980926513672
      ],
      "min": [
        -0.9999668598175049,
        -0.9999986886978149,
        -0.9996445178985596
      ],
      "type": "VEC3"
    },
    {
      "bufferView": 3,
      "byteOffset": 1048512,
      "componentType": 5126,
      "count": 9954,
      "max": [
        0.9999637007713318,
        0.9999998211860657,
        0.9999997019767761,
        1.0
      ],
      "min": [
        -0.9998382329940796,
        -0.9998143911361694,
        -0.9999634623527527,
        -1.0
      ],
      "type": "VEC4"
    },
    {
      "bufferView": 1,
      "byteOffset": 1572768,
      "componentType": 5126,
      "count": 9954,
      "max": [
        0.9978122115135193,
        0.998046875
      ],
      "min": [
        0.001953125,
        0.0032655000686645508
      ],
      "type": "VEC2"
    },
    {
      "bufferView": 1,
      "byteOffset": 1652400,
      "componentType": 5126,
      "count": 9954,
      "max": [
        0.9978122115135193,
        0.998046875
      ],
      "min": [
        0.001953125,
        0.0032655000686645508
      ],
      "type": "VEC2"
    },
    {
      "bufferView": 1,
      "byteOffset": 1732032,
      "componentType": 5126,
      "count": 9954,
      "max": [
        0.9978122115135193,
        0.998046875
      ],
      "min": [
        0.001953125,
        0.0032655000686645508
      ],
      "type": "VEC2"
    },
    {
      "bufferView": 0,
      "byteOffset": 1105380,
      "componentType": 5125,
      "count": 23541,
      "type": "SCALAR"
    }
  ],
  "asset": {
    "extras": {
      "author": "The Smithsonian Institution (https://sketchfab.com/Smithsonian)",
      "license": "CC0-1.0 (http://creativecommons.org/publicdomain/zero/1.0/)",
      "source": "https://sketchfab.com/3d-models/gemmipora-brassica-8d7bbce5f0864f9c88f827dd3fe40430",
      "title": "Gemmipora brassica"
    },
    "generator": "Sketchfab-12.66.0",
    "version": "2.0"
  },
  "bufferViews": [
    {
      "buffer": 0,
      "byteLength": 1199544,
      "name": "floatBufferViews",
      "target": 34963
    },
    {
      "buffer": 0,
      "byteLength": 1811664,
      "byteOffset": 1199544,
      "byteStride": 8,
      "name": "floatBufferViews",
      "target": 34962
    },
    {
      "buffer": 0,
      "byteLength": 1811664,
      "byteOffset": 3011208,
      "byteStride": 12,
      "name": "floatBufferViews",
      "target": 34962
    },
    {
      "buffer": 0,
      "byteLength": 1207776,
      "byteOffset": 4822872,
      "byteStride": 16,
      "name": "floatBufferViews",
      "target": 34962
    }
  ],
  "buffers": [
    {
      "byteLength": 6030648,
      "uri": "scene.bin"
    }
  ],
  "images": [
    {
      "uri": "textures/default_baseColor.jpeg"
    },
    {
      "uri": "textures/default_metallicRoughness.png"
    },
    {
      "uri": "textures/default_normal.jpeg"
    }
  ],
  "materials": [
    {
      "name": "default",
      "normalTexture": {
        "index": 2,
        "texCoord": 2
      },
      "occlusionTexture": {
        "index": 1,
        "texCoord": 1
      },
      "pbrMetallicRoughness": {
        "baseColorTexture": {
          "index": 0
        },
        "metallicFactor": 0.1,
        "metallicRoughnessTexture": {
          "index": 1,
          "texCoord": 1
        },
        "roughnessFactor": 0.8
      }
    }
  ],
  "meshes": [
    {
      "name": "Object_0",
      "primitives": [
        {
          "attributes": {
            "NORMAL": 1,
            "POSITION": 0,
            "TANGENT": 2,
            "TEXCOORD_0": 3,
            "TEXCOORD_1": 4,
            "TEXCOORD_2": 5
          },
          "indices": 6,
          "material": 0,
          "mode": 4
        }
      ]
    },
    {
      "name": "Object_1",
      "primitives": [
        {
          "attributes": {
            "NORMAL": 8,
            "POSITION": 7,
            "TANGENT": 9,
            "TEXCOORD_0": 10,
            "TEXCOORD_1": 11,
            "TEXCOORD_2": 12
          },
          "indices": 13,
          "material": 0,
          "mode": 4
        }
      ]
    }
  ],
  "nodes": [
    {
      "children": [
        1
      ],
      "matrix": [
        1.0,
        0.0,
        0.0,
        0.0,
        0.0,
        2.220446049250313e-16,
        -1.0,
        0.0,
        0.0,
        1.0,
        2.220446049250313e-16,
        0.0,
        0.0,
        0.0,
        0.0,
        1.0
      ],
      "name": "Sketchfab_model"
    },
    {
      "children": [
        2
      ],
      "name": "root"
    },
    {
      "children": [
        3
      ],
      "matrix": [
        1.0,
        0.0,
        0.0,
        0.0,
        0.0,
        2.220446049250313e-16,
        1.0,
        0.0,
        0.0,
        -1.0,
        2.220446049250313e-16,
        0.0,
        0.0,
        0.0,
        0.0,
        1.0
      ],
      "name": "GLTF_SceneRootNode"
    },
    {
      "children": [
        4,
        5
      ],
      "name": "_0"
    },
    {
      "mesh": 0,
      "name": "Object_4"
    },
    {
      "mesh": 1,
      "name": "Object_5"
    }
  ],
  "samplers": [
    {
      "magFilter": 9729,
      "minFilter": 9987,
      "wrapS": 10497,
      "wrapT": 10497
    }
  ],
  "scene": 0,
  "scenes": [
    {
      "name": "Sketchfab_Scene",
      "nodes": [
        0
      ]
    }
  ],
  "textures": [
    {
      "sampler": 0,
      "source": 0
    },
    {
      "sampler": 0,
      "source": 1
    },
    {
      "sampler": 0,
      "source": 2
    }
  ]
}
