{
  "accessors": [
    {
      "bufferView": 2,
      "componentType": 5126,
      "count": 65532,
      "max": [
        0.6469820141792297,
        6.983879089355469,
        0.42343899607658386
      ],
      "min": [
        -0.778240978717804,
        6.458890914916992,
        -0.9291970133781433
      ],
      "type": "VEC3"
    },
    {
      "bufferView": 2,
      "byteOffset": 786384,
      "componentType": 5126,
      "count": 65532,
      "max": [
        0.999963641166687,
        0.9999898672103882,
        0.9999024868011475
      ],
      "min": [
        -0.9999333024024963,
        -0.9999991059303284,
        -0.999614953994751
      ],
      "type": "VEC3"
    },
    {
      "bufferView": 1,
      "componentType": 5126,
      "count": 65532,
      "max": [
        0.9478899836540222,
        0.987742006778717
      ],
      "min": [
        0.0,
        0.045024000108242035
      ],
      "type": "VEC2"
    },
    {
      "bufferView": 0,
      "componentType": 5125,
      "count": 342876,
      "type": "SCALAR"
    },
    {
      "bufferView": 2,
      "byteOffset": 1572768,
      "componentType": 5126,
      "count": 65532,
      "max": [
        0.6685659885406494,
        7.007151126861572,
        0.42572999000549316
      ],
      "min": [
        -0.7117549777030945,
        6.4539570808410645,
        -0.9291970133781433
      ],
      "type": "VEC3"
    },
    {
      "bufferView": 2,
      "byteOffset": 2359152,
      "componentType": 5126,
      "count": 65532,
      "max": [
        0.9999375343322754,
        0.9999937415122986,
        0.9999966025352478
      ],
      "min": [
        -0.9999821782112122,
        -0.9999858736991882,
        -0.9998387694358826
      ],
      "type": "VEC3"
    },
    {
      "bufferView": 1,
      "byteOffset": 524256,
      "componentType": 5126,
      "count": 65532,
      "max": [
        0.9803770184516907,
        0.9999889731407166
      ],
      "min": [
        0.0039450000040233135,
        0.0
      ],
      "type": "VEC2"
    },
    {
      "bufferView": 0,
      "byteOffset": 1371504,
      "componentType": 5125,
      "count": 314970,
      "type": "SCALAR"
    },
    {
      "bufferView": 2,
      "byteOffset": 3145536,
      "componentType": 5126,
      "count": 25949,
      "max": [
        -0.03606199845671654,
        6.885347843170166,
        0.2002899944782257
      ],
      "min": [
        -0.7641720175743103,
        6.4539570808410645,
        -0.879010021686554
      ],
      "type": "VEC3"
    },
    {
      "bufferView": 2,
      "byteOffset": 3456924,
      "componentType": 5126,
      "count": 25949,
      "max": [
        0.9996183514595032,
        0.9999781847000122,
        0.9999379515647888
      ],
      "min": [
        -0.9999844431877136,
        -0.9999601244926453,
        -0.9999746084213257
      ],
      "type": "VEC3"
    },
    {
      "bufferView": 1,
      "byteOffset": 1048512,
      "componentType": 5126,
      "count": 25949,
      "max": [
        0.9805999994277954,
        0.9996560215950012
      ],
      "min": [
        0.0011119999689981341,
        0.04855100065469742
      ],
      "type": "VEC2"
    },
    {
      "bufferView": 0,
      "byteOffset": 2631384,
      "componentType": 5125,
      "count": 120822,
      "type": "SCALAR"
    }
  ],
  "asset": {
    "extras": {
      "author": "Digital Atlas of Ancient Life (https://sketchfab.com/DigitalAtlasOfAncientLife)",
      "license": "CC0-1.0 (http://creativecommons.org/publicdomain/zero/1.0/)",
      "source": "https://sketchfab.com/3d-models/coral-pseudodiploria-strigosa-pri-76868-aea81ca68678406582c03d37100e4b86",
      "title": "Coral: Pseudodiploria strigosa (PRI 76868)"
    },
    "generator": "Sketchfab-12.68.0",
    "version": "2.0"
  },
  "bufferViews": [
    {
      "buffer": 0,
      "byteLength": 3114672,
      "name": "floatBufferViews",
      "target": 34963
    },
    {
      "buffer": 0,
      "byteLength": 1256104,
      "byteOffset": 3114672,
      "byteStride": 8,
      "name": "floatBufferViews",
      "target": 34962
    },
    {
      "buffer": 0,
      "byteLength": 3768312,
      "byteOffset": 4370776,
      "byteStride": 12,
      "name": "floatBufferViews",
      "target": 34962
    }
  ],
  "buffers": [
    {
      "byteLength": 8139088,
      "uri": "scene.bin"
    }
  ],
  "extensionsUsed": [
    "KHR_materials_unlit"
  ],
  "images": [
    {
      "uri": "textures/PRI_Pseudodiploria_baseColor.jpeg"
    }
  ],
  "materials": [
    {
      "doubleSided": true,
      "extensions": {
        "KHR_materials_unlit": {}
      },
      "name": "PRI_Pseudodiploria",
      "pbrMetallicRoughness": {
        "baseColorTexture": {
          "index": 0
        },
        "metallicFactor": 0.0
      }
    }
  ],
  "meshes": [
    {
      "name": "Object_0",
      "primitives": [
        {
          "attributes": {
            "NORMAL": 1,
            "POSITION": 0,
            "TEXCOORD_0": 2
          },
          "indices": 3,
          "material": 0,
          "mode": 4
        }
      ]
    },
    {
      "name": "Object_1",
      "primitives": [
        {
          "attributes": {
            "NORMAL": 5,
            "POSITION": 4,
            "TEXCOORD_0": 6
          },
          "indices": 7,
          "material": 0,
          "mode": 4
        }
      ]
    },
    {
      "name": "Object_2",
      "primitives": [
        {
          "attributes": {
            "NORMAL": 9,
            "POSITION": 8,
            "TEXCOORD_0": 10
          },
          "indices": 11,
          "material": 0,
          "mode": 4
        }
      ]
    }
  ],
  "nodes": [
    {
      "children": [
        1
      ],
      "matrix": [
        0.8499166965484619,
        0.10807997733354557,
        0.5157133936882019,
        0.0,
        0.1374627947807312,
        -0.9903247356414795,
        -0.01899825781583808,
        0.0,
        0.5086703896522522,
        0.08703834563493748,
        -0.8565505146980286,
        0.0,
        -0.805382490158081,
        6.44154214859009,
        -6.790030002593992,
        1.0
      ],
      "name": "Sketchfab_model"
    },
    {
      "children": [
        2,
        3,
        4
      ],
      "name": "PRI_Pseudodiploria.obj.cleaner.materialmerger.gles"
    },
    {
      "mesh": 0,
      "name": "Object_2"
    },
    {
      "mesh": 1,
      "name": "Object_3"
    },
    {
      "mesh": 2,
      "name": "Object_4"
    }
  ],
  "samplers": [
    {
      "magFilter": 9729,
      "minFilter": 9987,
      "wrapS": 10497,
      "wrapT": 10497
    }
  ],
  "scene": 0,
  "scenes": [
    {
      "name": "Sketchfab_Scene",
      "nodes": [
        0
      ]
    }
  ],
  "textures": [
    {
      "sampler": 0,
      "source": 0
    }
  ]
}
