{
  "accessors": [
    {
      "bufferView": 2,
      "componentType": 5126,
      "count": 65532,
      "max": [
        0.8657248020172119,
        1.4690855741500854,
        0.9672032594680786
      ],
      "min": [
        -0.7468316555023193,
        -0.05375208705663681,
        -0.38897550106048584
      ],
      "type": "VEC3"
    },
    {
      "bufferView": 2,
      "byteOffset": 786384,
      "componentType": 5126,
      "count": 65532,
      "max": [
        0.9999567866325378,
        0.9996068477630615,
        0.9998995065689087
      ],
      "min": [
        -0.9998248219490051,
        -0.999972939491272,
        -0.9999099969863892
      ],
      "type": "VEC3"
    },
    {
      "bufferView": 1,
      "componentType": 5126,
      "count": 65532,
      "max": [
        0.9994680285453796,
        0.9976131319999695
      ],
      "min": [
        0.0036453495267778635,
        0.0015663616359233856
      ],
      "type": "VEC2"
    },
    {
      "bufferView": 0,
      "componentType": 5125,
      "count": 354309,
      "type": "SCALAR"
    },
    {
      "bufferView": 2,
      "byteOffset": 1572768,
      "componentType": 5126,
      "count": 65532,
      "max": [
        1.5782876014709473,
        1.9331697225570679,
        0.8778260946273804
      ],
      "min": [
        -0.5428160429000854,
        0.5168410539627075,
        -1.179198145866394
      ],
      "type": "VEC3"
    },
    {
      "bufferView": 2,
      "byteOffset": 2359152,
      "componentType": 5126,
      "count": 65532,
      "max": [
        0.9999991655349731,
        0.9998906254768372,
        0.9999616146087646
      ],
      "min": [
        -0.9999729990959167,
        -0.999992847442627,
        -0.9999039173126221
      ],
      "type": "VEC3"
    },
    {
      "bufferView": 1,
      "byteOffset": 524256,
      "componentType": 5126,
      "count": 65532,
      "max": [
        0.999380886554718,
        0.9961692690849304
      ],
      "min": [
        0.0030876360833644867,
        0.001514251809567213
      ],
      "type": "VEC2"
    },
    {
      "bufferView": 0,
      "byteOffset": 1417236,
      "componentType": 5125,
      "count": 350853,
      "type": "SCALAR"
    },
    {
      "bufferView": 2,
      "byteOffset": 3145536,
      "componentType": 5126,
      "count": 65532,
      "max": [
        1.574479103088379,
        2.375992774963379,
        1.3538271188735962
      ],
      "min": [
        -0.5156651735305786,
        0.13489630818367004,
        -0.7693885564804077
      ],
      "type": "VEC3"
    },
    {
      "bufferView": 2,
      "byteOffset": 3931920,
      "componentType": 5126,
      "count": 65532,
      "max": [
        0.9999775886535645,
        0.9986129403114319,
        0.9999997019767761
      ],
      "min": [
        -0.9999887943267822,
        -0.9999669194221497,
        -0.9999929070472717
      ],
      "type": "VEC3"
    },
    {
      "bufferView": 1,
      "byteOffset": 1048512,
      "componentType": 5126,
      "count": 65532,
      "max": [
        0.9839329123497009,
        0.9977010488510132
      ],
      "min": [
        0.006170394830405712,
        5.128420889377594e-05
      ],
      "type": "VEC2"
    },
    {
      "bufferView": 0,
      "byteOffset": 2820648,
      "componentType": 5125,
      "count": 348570,
      "type": "SCALAR"
    },
    {
      "bufferView": 2,
      "byteOffset": 4718304,
      "componentType": 5126,
      "count": 65532,
      "max": [
        1.3417010307312012,
        2.411623239517212,
        1.3520194292068481
      ],
      "min": [
        -1.1162397861480713,
        0.20429453253746033,
        -1.6110635995864868
      ],
      "type": "VEC3"
    },
    {
      "bufferView": 2,
      "byteOffset": 5504688,
      "componentType": 5126,
      "count": 65532,
      "max": [
        0.9999732971191406,
        0.9999342560768127,
        0.9999616146087646
      ],
      "min": [
        -0.9997254014015198,
        -0.9999910593032837,
        -0.9999929666519165
      ],
      "type": "VEC3"
    },
    {
      "bufferView": 1,
      "byteOffset": 1572768,
      "componentType": 5126,
      "count": 65532,
      "max": [
        0.9999209046363831,
        0.998677670955658
      ],
      "min": [
        4.6043191105127335e-05,
        1.8010614439845085e-05
      ],
      "type": "VEC2"
    },
    {
      "bufferView": 0,
      "byteOffset": 4214928,
      "componentType": 5125,
      "count": 337224,
      "type": "SCALAR"
    },
    {
      "bufferView": 2,
      "byteOffset": 6291072,
      "componentType": 5126,
      "count": 65532,
      "max": [
        -0.011823613196611404,
        1.8387800455093384,
        0.7819322347640991
      ],
      "min": [
        -1.4712170362472534,
        -0.25571009516716003,
        -1.0031315088272095
      ],
      "type": "VEC3"
    },
    {
      "bufferView": 2,
      "byteOffset": 7077456,
      "componentType": 5126,
      "count": 65532,
      "max": [
        0.9994093775749207,
        0.999958872795105,
        0.9999802708625793
      ],
      "min": [
        -0.9999014139175415,
        -0.9999355673789978,
        -0.9998888373374939
      ],
      "type": "VEC3"
    },
    {
      "bufferView": 1,
      "byteOffset": 2097024,
      "componentType": 5126,
      "count": 65532,
      "max": [
        0.9974583983421326,
        0.9991734027862549
      ],
      "min": [
        6.19416596236988e-06,
        5.607586354017258e-05
      ],
      "type": "VEC2"
    },
    {
      "bufferView": 0,
      "byteOffset": 5563824,
      "componentType": 5125,
      "count": 355221,
      "type": "SCALAR"
    },
    {
      "bufferView": 2,
      "byteOffset": 7863840,
      "componentType": 5126,
      "count": 65532,
      "max": [
        0.4989660382270813,
        2.2420027256011963,
        1.5041829347610474
      ],
      "min": [
        -1.4857643842697144,
        -0.27530309557914734,
        -0.6006218194961548
      ],
      "type": "VEC3"
    },
    {
      "bufferView": 2,
      "byteOffset": 8650224,
      "componentType": 5126,
      "count": 65532,
      "max": [
        0.9999304413795471,
        0.9995552897453308,
        0.9999347925186157
      ],
      "min": [
        -0.999840497970581,
        -0.9999979138374329,
        -0.9999264478683472
      ],
      "type": "VEC3"
    },
    {
      "bufferView": 1,
      "byteOffset": 2621280,
      "componentType": 5126,
      "count": 65532,
      "max": [
        0.9998739361763,
        0.9966180920600891
      ],
      "min": [
        6.764545105397701e-05,
        6.477686110883951e-05
      ],
      "type": "VEC2"
    },
    {
      "bufferView": 0,
      "byteOffset": 6984708,
      "componentType": 5125,
      "count": 337179,
      "type": "SCALAR"
    },
    {
      "bufferView": 2,
      "byteOffset": 9436608,
      "componentType": 5126,
      "count": 65532,
      "max": [
        1.1416904926300049,
        2.234361171722412,
        1.5041829347610474
      ],
      "min": [
        -0.9851168394088745,
        0.18600913882255554,
        -1.7543387413024902
      ],
      "type": "VEC3"
    },
    {
      "bufferView": 2,
      "byteOffset": 10222992,
      "componentType": 5126,
      "count": 65532,
      "max": [
        0.9997739791870117,
        0.9996428489685059,
        0.9999387860298157
      ],
      "min": [
        -0.9999173879623413,
        -0.9999978542327881,
        -0.9999936819076538
      ],
      "type": "VEC3"
    },
    {
      "bufferView": 1,
      "byteOffset": 3145536,
      "componentType": 5126,
      "count": 65532,
      "max": [
        0.9962838292121887,
        0.9992395639419556
      ],
      "min": [
        1.5872414223849773e-05,
        0.0003576315939426422
      ],
      "type": "VEC2"
    },
    {
      "bufferView": 0,
      "byteOffset": 8333424,
      "componentType": 5125,
      "count": 340512,
      "type": "SCALAR"
    },
    {
      "bufferView": 2,
      "byteOffset": 11009376,
      "componentType": 5126,
      "count": 55449,
      "max": [
        1.5476367473602295,
        2.3883047103881836,
        0.7198227643966675
      ],
      "min": [
        -0.9045819044113159,
        -0.05187060683965683,
        -1.6356738805770874
      ],
      "type": "VEC3"
    },
    {
      "bufferView": 2,
      "byteOffset": 11674764,
      "componentType": 5126,
      "count": 55449,
      "max": [
        0.9999447464942932,
        0.99981689453125,
        0.9999387860298157
      ],
      "min": [
        -0.9999917149543762,
        -0.9999819397926331,
        -0.9999979138374329
      ],
      "type": "VEC3"
    },
    {
      "bufferView": 1,
      "byteOffset": 3669792,
      "componentType": 5126,
      "count": 55449,
      "max": [
        0.9998738765716553,
        0.9991790056228638
      ],
      "min": [
        0.003640255890786648,
        7.474480662494898e-05
      ],
      "type": "VEC2"
    },
    {
      "bufferView": 0,
      "byteOffset": 9695472,
      "componentType": 5125,
      "count": 263007,
      "type": "SCALAR"
    }
  ],
  "asset": {
    "extras": {
      "author": "Patric Lengacher (https://sketchfab.com/patric_ocean)",
      "license": "CC-BY-4.0 (http://creativecommons.org/licenses/by/4.0/)",
      "source": "https://sketchfab.com/3d-models/elkhorn-coral-acropora-palmata-ce0fdf05ab8c4a0e94015cf3798cbc45",
      "title": "Elkhorn Coral / Acropora palmata"
    },
    "generator": "Sketchfab-12.66.0",
    "version": "2.0"
  },
  "bufferViews": [
    {
      "buffer": 0,
      "byteLength": 10747500,
      "name": "floatBufferViews",
      "target": 34963
    },
    {
      "buffer": 0,
      "byteLength": 4113384,
      "byteOffset": 10747500,
      "byteStride": 8,
      "name": "floatBufferViews",
      "target": 34962
    },
    {
      "buffer": 0,
      "byteLength": 12340152,
      "byteOffset": 14860884,
      "byteStride": 12,
      "name": "floatBufferViews",
      "target": 34962
    }
  ],
  "buffers": [
    {
      "byteLength": 27201036,
      "uri": "scene.bin"
    }
  ],
  "images": [
    {
      "uri": "textures/material0_baseColor.jpeg"
    }
  ],
  "materials": [
    {
      "doubleSided": true,
      "name": "material0",
      "pbrMetallicRoughness": {
        "baseColorTexture": {
          "index": 0
        },
        "metallicFactor": 0.0,
        "roughnessFactor": 0.9577051494623774
      }
    }
  ],
  "meshes": [
    {
      "name": "Model_material0_0",
      "primitives": [
        {
          "attributes": {
            "NORMAL": 1,
            "POSITION": 0,
            "TEXCOORD_0": 2
          },
          "indices": 3,
          "material": 0,
          "mode": 4
        }
      ]
    },
    {
      "name": "Model_material0_0",
      "primitives": [
        {
          "attributes": {
            "NORMAL": 5,
            "POSITION": 4,
            "TEXCOORD_0": 6
          },
          "indices": 7,
          "material": 0,
          "mode": 4
        }
      ]
    },
    {
      "name": "Model_material0_0",
      "primitives": [
        {
          "attributes": {
            "NORMAL": 9,
            "POSITION": 8,
            "TEXCOORD_0": 10
          },
          "indices": 11,
          "material": 0,
          "mode": 4
        }
      ]
    },
    {
      "name": "Model_material0_0",
      "primitives": [
        {
          "attributes": {
            "NORMAL": 13,
            "POSITION": 12,
            "TEXCOORD_0": 14
          },
          "indices": 15,
          "material": 0,
          "mode": 4
        }
      ]
    },
    {
      "name": "Model_material0_0",
      "primitives": [
        {
          "attributes": {
            "NORMAL": 17,
            "POSITION": 16,
            "TEXCOORD_0": 18
          },
          "indices": 19,
          "material": 0,
          "mode": 4
        }
      ]
    },
    {
      "name": "Model_material0_0",
      "primitives": [
        {
          "attributes": {
            "NORMAL": 21,
            "POSITION": 20,
            "TEXCOORD_0": 22
          },
          "indices": 23,
          "material": 0,
          "mode": 4
        }
      ]
    },
    {
      "name": "Model_material0_0",
      "primitives": [
        {
          "attributes": {
            "NORMAL": 25,
            "POSITION": 24,
            "TEXCOORD_0": 26
          },
          "indices": 27,
          "material": 0,
          "mode": 4
        }
      ]
    },
    {
      "name": "Model_material0_0",
      "primitives": [
        {
          "attributes": {
            "NORMAL": 29,
            "POSITION": 28,
            "TEXCOORD_0": 30
          },
          "indices": 31,
          "material": 0,
          "mode": 4
        }
      ]
    }
  ],
  "nodes": [
    {
      "children": [
        1
      ],
      "matrix": [
        0.988286018371582,
        0.15254279971122742,
        -0.0046348925679921766,
        0.0,
        -0.1526031494140625,
        0.9881135821342468,
        -0.018542928621172686,
        0.0,
        0.0017512100748717785,
        0.019033016636967437,
        0.9998173117637634,
        0.0,
        -0.1626814603805542,
        1.1711027622222898,
        0.9235104322433474,
        1.0
      ],
      "name": "Sketchfab_model"
    },
    {
      "children": [
        2
      ],
      "matrix": [
        1.0,
        0.0,
        0.0,
        0.0,
        0.0,
        -1.0,
        0.0,
        0.0,
        0.0,
        0.0,
        -1.0,
        0.0,
        0.0,
        0.0,
        0.0,
        1.0
      ],
      "name": "model.fbx"
    },
    {
      "children": [
        3
      ],
      "name": "RootNode"
    },
    {
      "children": [
        4,
        5,
        6,
        7,
        8,
        9,
        10,
        11
      ],
      "name": "Model"
    },
    {
      "mesh": 0,
      "name": "Model_material0_0"
    },
    {
      "mesh": 1,
      "name": "Model_material0_0"
    },
    {
      "mesh": 2,
      "name": "Model_material0_0"
    },
    {
      "mesh": 3,
      "name": "Model_material0_0"
    },
    {
      "mesh": 4,
      "name": "Model_material0_0"
    },
    {
      "mesh": 5,
      "name": "Model_material0_0"
    },
    {
      "mesh": 6,
      "name": "Model_material0_0"
    },
    {
      "mesh": 7,
      "name": "Model_material0_0"
    }
  ],
  "samplers": [
    {
      "magFilter": 9729,
      "minFilter": 9987,
      "wrapS": 10497,
      "wrapT": 10497
    }
  ],
  "scene": 0,
  "scenes": [
    {
      "name": "Sketchfab_Scene",
      "nodes": [
        0
      ]
    }
  ],
  "textures": [
    {
      "sampler": 0,
      "source": 0
    }
  ]
}
