{
  "accessors": [
    {
      "bufferView": 2,
      "componentType": 5126,
      "count": 65532,
      "max": [
        53.372257232666016,
        117.65319061279297,
        167.00453186035156
      ],
      "min": [
        -68.70997619628906,
        -61.58316421508789,
        -14.136469841003418
      ],
      "type": "VEC3"
    },
    {
      "bufferView": 2,
      "byteOffset": 786384,
      "componentType": 5126,
      "count": 65532,
      "max": [
        0.999998152256012,
        0.999995768070221,
        0.9999991059303284
      ],
      "min": [
        -0.999994158744812,
        -0.9999998807907104,
        -0.9999997019767761
      ],
      "type": "VEC3"
    },
    {
      "bufferView": 3,
      "componentType": 5126,
      "count": 65532,
      "max": [
        1.0,
        0.999997079372406,
        0.9999855756759644,
        1.0
      ],
      "min": [
        -0.999999463558197,
        -0.9999991655349731,
        -0.999980092048645,
        -1.0
      ],
      "type": "VEC4"
    },
    {
      "bufferView": 1,
      "componentType": 5126,
      "count": 65532,
      "max": [
        0.9936540126800537,
        0.9941409826278687
      ],
      "min": [
        0.005859000142663717,
        0.013161003589630127
      ],
      "type": "VEC2"
    },
    {
      "bufferView": 1,
      "byteOffset": 524256,
      "componentType": 5126,
      "count": 65532,
      "max": [
        0.9936540126800537,
        0.9941409826278687
      ],
      "min": [
        0.005859000142663717,
        0.013161003589630127
      ],
      "type": "VEC2"
    },
    {
      "bufferView": 1,
      "byteOffset": 1048512,
      "componentType": 5126,
      "count": 65532,
      "max": [
        0.9936540126800537,
        0.9941409826278687
      ],
      "min": [
        0.005859000142663717,
        0.013161003589630127
      ],
      "type": "VEC2"
    },
    {
      "bufferView": 0,
      "componentType": 5125,
      "count": 252720,
      "type": "SCALAR"
    },
    {
      "bufferView": 2,
      "byteOffset": 1572768,
      "componentType": 5126,
      "count": 14016,
      "max": [
        56.09055709838867,
        105.89236450195313,
        146.4756622314453
      ],
      "min": [
        -68.49696350097656,
        -60.88810348510742,
        -10.62368392944336
      ],
      "type": "VEC3"
    },
    {
      "bufferView": 2,
      "byteOffset": 1740960,
      "componentType": 5126,
      "count": 14016,
      "max": [
        0.9999908804893494,
        0.9998454451560974,
        0.9999147057533264
      ],
      "min": [
        -0.9998706579208374,
        -0.9999918937683105,
        -0.9990840554237366
      ],
      "type": "VEC3"
    },
    {
      "bufferView": 3,
      "byteOffset": 1048512,
      "componentType": 5126,
      "count": 14016,
      "max": [
        0.9991406798362732,
        0.9998206496238708,
        0.9999116659164429,
        1.0
      ],
      "min": [
        -0.9999703168869019,
        -0.9999980330467224,
        -0.9999470710754395,
        -1.0
      ],
      "type": "VEC4"
    },
    {
      "bufferView": 1,
      "byteOffset": 1572768,
      "componentType": 5126,
      "count": 14016,
      "max": [
        0.9900829792022705,
        0.9917070269584656
      ],
      "min": [
        0.015646999701857567,
        0.014001011848449707
      ],
      "type": "VEC2"
    },
    {
      "bufferView": 1,
      "byteOffset": 1684896,
      "componentType": 5126,
      "count": 14016,
      "max": [
        0.9900829792022705,
        0.9917070269584656
      ],
      "min": [
        0.015646999701857567,
        0.014001011848449707
      ],
      "type": "VEC2"
    },
    {
      "bufferView": 1,
      "byteOffset": 1797024,
      "componentType": 5126,
      "count": 14016,
      "max": [
        0.9900829792022705,
        0.9917070269584656
      ],
      "min": [
        0.015646999701857567,
        0.014001011848449707
      ],
      "type": "VEC2"
    },
    {
      "bufferView": 0,
      "byteOffset": 1010880,
      "componentType": 5125,
      "count": 44622,
      "type": "SCALAR"
    }
  ],
  "asset": {
    "extras": {
      "author": "The Smithsonian Institution (https://sketchfab.com/Smithsonian)",
      "license": "CC0-1.0 (http://creativecommons.org/publicdomain/zero/1.0/)",
      "source": "https://sketchfab.com/3d-models/seriatopora-hystrix-b6be88ce19e14e5bb038918d111430d5",
      "title": "Seriatopora hystrix"
    },
    "generator": "Sketchfab-12.66.0",
    "version": "2.0"
  },
  "bufferViews": [
    {
      "buffer": 0,
      "byteLength": 1189368,
      "name": "floatBufferViews",
      "target": 34963
    },
    {
      "buffer": 0,
      "byteLength": 1909152,
      "byteOffset": 1189368,
      "byteStride": 8,
      "name": "floatBufferViews",
      "target": 34962
    },
    {
      "buffer": 0,
      "byteLength": 1909152,
      "byteOffset": 3098520,
      "byteStride": 12,
      "name": "floatBufferViews",
      "target": 34962
    },
    {
      "buffer": 0,
      "byteLength": 1272768,
      "byteOffset": 5007672,
      "byteStride": 16,
      "name": "floatBufferViews",
      "target": 34962
    }
  ],
  "buffers": [
    {
      "byteLength": 6280440,
      "uri": "scene.bin"
    }
  ],
  "images": [
    {
      "uri": "textures/default_baseColor.jpeg"
    },
    {
      "uri": "textures/default_metallicRoughness.png"
    },
    {
      "uri": "textures/default_normal.jpeg"
    }
  ],
  "materials": [
    {
      "name": "default",
      "normalTexture": {
        "index": 2,
        "texCoord": 2
      },
      "occlusionTexture": {
        "index": 1,
        "texCoord": 1
      },
      "pbrMetallicRoughness": {
        "baseColorTexture": {
          "index": 0
        },
        "metallicFactor": 0.1,
        "metallicRoughnessTexture": {
          "index": 1,
          "texCoord": 1
        },
        "roughnessFactor": 0.8
      }
    }
  ],
  "meshes": [
    {
      "name": "Object_0",
      "primitives": [
        {
          "attributes": {
            "NORMAL": 1,
            "POSITION": 0,
            "TANGENT": 2,
            "TEXCOORD_0": 3,
            "TEXCOORD_1": 4,
            "TEXCOORD_2": 5
          },
          "indices": 6,
          "material": 0,
          "mode": 4
        }
      ]
    },
    {
      "name": "Object_1",
      "primitives": [
        {
          "attributes": {
            "NORMAL": 8,
            "POSITION": 7,
            "TANGENT": 9,
            "TEXCOORD_0": 10,
            "TEXCOORD_1": 11,
            "TEXCOORD_2": 12
          },
          "indices": 13,
          "material": 0,
          "mode": 4
        }
      ]
    }
  ],
  "nodes": [
    {
      "children": [
        1
      ],
      "matrix": [
        -2.220446049250313e-16,
        2.220446049250313e-16,
        -1.0,
        0.0,
        -1.0,
        -4.930380657631324e-32,
        2.220446049250313e-16,
        0.0,
        0.0,
        1.0,
        2.220446049250313e-16,
        0.0,
        -82.74369812011719,
        -1.5570755947623416e-14,
        70.12445068359375,
        1.0
      ],
      "name": "Sketchfab_model"
    },
    {
      "children": [
        2
      ],
      "name": "root"
    },
    {
      "children": [
        3
      ],
      "matrix": [
        1.0,
        0.0,
        0.0,
        0.0,
        0.0,
        2.220446049250313e-16,
        1.0,
        0.0,
        0.0,
        -1.0,
        2.220446049250313e-16,
        0.0,
        0.0,
        0.0,
        0.0,
        1.0
      ],
      "name": "GLTF_SceneRootNode"
    },
    {
      "children": [
        4,
        5
      ],
      "name": "_0"
    },
    {
      "mesh": 0,
      "name": "Object_4"
    },
    {
      "mesh": 1,
      "name": "Object_5"
    }
  ],
  "samplers": [
    {
      "magFilter": 9729,
      "minFilter": 9987,
      "wrapS": 10497,
      "wrapT": 10497
    }
  ],
  "scene": 0,
  "scenes": [
    {
      "name": "Sketchfab_Scene",
      "nodes": [
        0
      ]
    }
  ],
  "textures": [
    {
      "sampler": 0,
      "source": 0
    },
    {
      "sampler": 0,
      "source": 1
    },
    {
      "sampler": 0,
      "source": 2
    }
  ]
}
