{
  "accessors": [
    {
      "bufferView": 2,
      "componentType": 5126,
      "count": 65532,
      "max": [
        0.19328400492668152,
        0.14255499839782715,
        0.21966500580310822
      ],
      "min": [
        -0.1826470047235489,
        -0.14284299314022064,
        -0.219992995262146
      ],
      "type": "VEC3"
    },
    {
      "bufferView": 2,
      "byteOffset": 786384,
      "componentType": 5126,
      "count": 65532,
      "max": [
        0.9999687075614929,
        0.9999712109565735,
        0.9999658465385437
      ],
      "min": [
        -0.9999765157699585,
        -0.9999805688858032,
        -0.9998722672462463
      ],
      "type": "VEC3"
    },
    {
      "bufferView": 3,
      "componentType": 5126,
      "count": 65532,
      "max": [
        0.9999822974205017,
        0.9999873638153076,
        0.9999903440475464,
        1.0
      ],
      "min": [
        -0.9999973773956299,
        -0.9999918341636658,
        -0.9999668002128601,
        -1.0
      ],
      "type": "VEC4"
    },
    {
      "bufferView": 1,
      "componentType": 5126,
      "count": 65532,
      "max": [
        0.9976670742034912,
        0.998046875
      ],
      "min": [
        0.001953125,
        0.001953125
      ],
      "type": "VEC2"
    },
    {
      "bufferView": 1,
      "byteOffset": 524256,
      "componentType": 5126,
      "count": 65532,
      "max": [
        0.9976670742034912,
        0.998046875
      ],
      "min": [
        0.001953125,
        0.001953125
      ],
      "type": "VEC2"
    },
    {
      "bufferView": 1,
      "byteOffset": 1048512,
      "componentType": 5126,
      "count": 65532,
      "max": [
        0.9976670742034912,
        0.998046875
      ],
      "min": [
        0.001953125,
        0.001953125
      ],
      "type": "VEC2"
    },
    {
      "bufferView": 0,
      "componentType": 5125,
      "count": 254580,
      "type": "SCALAR"
    },
    {
      "bufferView": 2,
      "byteOffset": 1572768,
      "componentType": 5126,
      "count": 18959,
      "max": [
        0.1857919991016388,
        0.14015300571918488,
        0.22039900720119476
      ],
      "min": [
        -0.1805720031261444,
        -0.14284299314022064,
        -0.21936599910259247
      ],
      "type": "VEC3"
    },
    {
      "bufferView": 2,
      "byteOffset": 1800276,
      "componentType": 5126,
      "count": 18959,
      "max": [
        0.9999420046806335,
        0.9999447464942932,
        0.9998698830604553
      ],
      "min": [
        -0.9999281764030457,
        -0.9997532367706299,
        -0.9998722672462463
      ],
      "type": "VEC3"
    },
    {
      "bufferView": 3,
      "byteOffset": 1048512,
      "componentType": 5126,
      "count": 18959,
      "max": [
        0.9999709725379944,
        0.9997504949569702,
        0.9999908804893494,
        1.0
      ],
      "min": [
        -0.9999306201934814,
        -0.9999942779541016,
        -0.9999762773513794,
        -1.0
      ],
      "type": "VEC4"
    },
    {
      "bufferView": 1,
      "byteOffset": 1572768,
      "componentType": 5126,
      "count": 18959,
      "max": [
        0.9976736903190613,
        0.998046875
      ],
      "min": [
        0.001953125,
        0.0020527243614196777
      ],
      "type": "VEC2"
    },
    {
      "bufferView": 1,
      "byteOffset": 1724440,
      "componentType": 5126,
      "count": 18959,
      "max": [
        0.9976736903190613,
        0.998046875
      ],
      "min": [
        0.001953125,
        0.0020527243614196777
      ],
      "type": "VEC2"
    },
    {
      "bufferView": 1,
      "byteOffset": 1876112,
      "componentType": 5126,
      "count": 18959,
      "max": [
        0.9976736903190613,
        0.998046875
      ],
      "min": [
        0.001953125,
        0.0020527243614196777
      ],
      "type": "VEC2"
    },
    {
      "bufferView": 0,
      "byteOffset": 1018320,
      "componentType": 5125,
      "count": 45240,
      "type": "SCALAR"
    }
  ],
  "asset": {
    "extras": {
      "author": "The Smithsonian Institution (https://sketchfab.com/Smithsonian)",
      "license": "CC0-1.0 (http://creativecommons.org/publicdomain/zero/1.0/)",
      "source": "https://sketchfab.com/3d-models/heliopora-coerulea-52baa08bcffc41a8adefeb00aaf492ad",
      "title": "Heliopora coerulea"
    },
    "generator": "Sketchfab-12.66.0",
    "version": "2.0"
  },
  "bufferViews": [
    {
      "buffer": 0,
      "byteLength": 1199280,
      "name": "floatBufferViews",
      "target": 34963
    },
    {
      "buffer": 0,
      "byteLength": 2027784,
      "byteOffset": 1199280,
      "byteStride": 8,
      "name": "floatBufferViews",
      "target": 34962
    },
    {
      "buffer": 0,
      "byteLength": 2027784,
      "byteOffset": 3227064,
      "byteStride": 12,
      "name": "floatBufferViews",
      "target": 34962
    },
    {
      "buffer": 0,
      "byteLength": 1351856,
      "byteOffset": 5254848,
      "byteStride": 16,
      "name": "floatBufferViews",
      "target": 34962
    }
  ],
  "buffers": [
    {
      "byteLength": 6606704,
      "uri": "scene.bin"
    }
  ],
  "images": [
    {
      "uri": "textures/default_baseColor.jpeg"
    },
    {
      "uri": "textures/default_metallicRoughness.png"
    },
    {
      "uri": "textures/default_normal.jpeg"
    }
  ],
  "materials": [
    {
      "name": "default",
      "normalTexture": {
        "index": 2,
        "texCoord": 2
      },
      "occlusionTexture": {
        "index": 1,
        "texCoord": 1
      },
      "pbrMetallicRoughness": {
        "baseColorTexture": {
          "index": 0
        },
        "metallicFactor": 0.1,
        "metallicRoughnessTexture": {
          "index": 1,
          "texCoord": 1
        },
        "roughnessFactor": 0.8
      }
    }
  ],
  "meshes": [
    {
      "name": "Object_0",
      "primitives": [
        {
          "attributes": {
            "NORMAL": 1,
            "POSITION": 0,
            "TANGENT": 2,
            "TEXCOORD_0": 3,
            "TEXCOORD_1": 4,
            "TEXCOORD_2": 5
          },
          "indices": 6,
          "material": 0,
          "mode": 4
        }
      ]
    },
    {
      "name": "Object_1",
      "primitives": [
        {
          "attributes": {
            "NORMAL": 8,
            "POSITION": 7,
            "TANGENT": 9,
            "TEXCOORD_0": 10,
            "TEXCOORD_1": 11,
            "TEXCOORD_2": 12
          },
          "indices": 13,
          "material": 0,
          "mode": 4
        }
      ]
    }
  ],
  "nodes": [
    {
      "children": [
        1
      ],
      "matrix": [
        0.0,
        -1.0,
        -1.1102230246251565e-16,
        0.0,
        -1.0,
        -1.110223024625157e-16,
        2.2204460492503128e-16,
        0.0,
        -1.1102230246251565e-16,
        0.0,
        -1.0,
        0.0,
        0.00511544942855835,
        0.0051746666431427,
        5.921721458435174e-05,
        1.0
      ],
      "name": "Sketchfab_model"
    },
    {
      "children": [
        2
      ],
      "name": "root"
    },
    {
      "children": [
        3
      ],
      "matrix": [
        1.0,
        0.0,
        0.0,
        0.0,
        0.0,
        2.220446049250313e-16,
        1.0,
        0.0,
        0.0,
        -1.0,
        2.220446049250313e-16,
        0.0,
        0.0,
        0.0,
        0.0,
        1.0
      ],
      "name": "GLTF_SceneRootNode"
    },
    {
      "children": [
        4,
        5
      ],
      "name": "_0"
    },
    {
      "mesh": 0,
      "name": "Object_4"
    },
    {
      "mesh": 1,
      "name": "Object_5"
    }
  ],
  "samplers": [
    {
      "magFilter": 9729,
      "minFilter": 9987,
      "wrapS": 10497,
      "wrapT": 10497
    }
  ],
  "scene": 0,
  "scenes": [
    {
      "name": "Sketchfab_Scene",
      "nodes": [
        0
      ]
    }
  ],
  "textures": [
    {
      "sampler": 0,
      "source": 0
    },
    {
      "sampler": 0,
      "source": 1
    },
    {
      "sampler": 0,
      "source": 2
    }
  ]
}
