{
  "accessors": [
    {
      "bufferView": 2,
      "componentType": 5126,
      "count": 65532,
      "max": [
        0.3138960003852844,
        0.1719129979610443,
        0.20649099349975586
      ],
      "min": [
        -0.3139899969100952,
        -0.17219999432563782,
        -0.2068450003862381
      ],
      "type": "VEC3"
    },
    {
      "bufferView": 2,
      "byteOffset": 786384,
      "componentType": 5126,
      "count": 65532,
      "max": [
        0.9999863505363464,
        0.9999979734420776,
        0.9999949932098389
      ],
      "min": [
        -0.9999954700469971,
        -0.9999532103538513,
        -0.9999884963035583
      ],
      "type": "VEC3"
    },
    {
      "bufferView": 3,
      "componentType": 5126,
      "count": 65532,
      "max": [
        0.9999970197677612,
        0.9999726414680481,
        0.9999639391899109,
        1.0
      ],
      "min": [
        -0.9999732971191406,
        -0.9999969005584717,
        -0.9999728202819824,
        -1.0
      ],
      "type": "VEC4"
    },
    {
      "bufferView": 1,
      "componentType": 5126,
      "count": 65532,
      "max": [
        0.9974769949913025,
        0.998046875
      ],
      "min": [
        0.001953125,
        0.0019741058349609375
      ],
      "type": "VEC2"
    },
    {
      "bufferView": 1,
      "byteOffset": 524256,
      "componentType": 5126,
      "count": 65532,
      "max": [
        0.9974769949913025,
        0.998046875
      ],
      "min": [
        0.001953125,
        0.0019741058349609375
      ],
      "type": "VEC2"
    },
    {
      "bufferView": 1,
      "byteOffset": 1048512,
      "componentType": 5126,
      "count": 65532,
      "max": [
        0.9974769949913025,
        0.998046875
      ],
      "min": [
        0.001953125,
        0.0019741058349609375
      ],
      "type": "VEC2"
    },
    {
      "bufferView": 0,
      "componentType": 5125,
      "count": 243597,
      "type": "SCALAR"
    },
    {
      "bufferView": 2,
      "byteOffset": 1572768,
      "componentType": 5126,
      "count": 17469,
      "max": [
        0.3028680086135864,
        0.170864999294281,
        0.14856299757957458
      ],
      "min": [
        -0.30779901146888733,
        -0.11814100295305252,
        -0.2068450003862381
      ],
      "type": "VEC3"
    },
    {
      "bufferView": 2,
      "byteOffset": 1782396,
      "componentType": 5126,
      "count": 17469,
      "max": [
        0.9999837875366211,
        0.9999944567680359,
        0.9997186660766602
      ],
      "min": [
        -0.9997295141220093,
        -0.9997682571411133,
        -0.9997607469558716
      ],
      "type": "VEC3"
    },
    {
      "bufferView": 3,
      "byteOffset": 1048512,
      "componentType": 5126,
      "count": 17469,
      "max": [
        0.9998244643211365,
        0.9998475313186646,
        0.9999337196350098,
        1.0
      ],
      "min": [
        -0.9998438954353333,
        -0.999956488609314,
        -0.9999615550041199,
        -1.0
      ],
      "type": "VEC4"
    },
    {
      "bufferView": 1,
      "byteOffset": 1572768,
      "componentType": 5126,
      "count": 17469,
      "max": [
        0.997317910194397,
        0.998046875
      ],
      "min": [
        0.001953125,
        0.001953125
      ],
      "type": "VEC2"
    },
    {
      "bufferView": 1,
      "byteOffset": 1712520,
      "componentType": 5126,
      "count": 17469,
      "max": [
        0.997317910194397,
        0.998046875
      ],
      "min": [
        0.001953125,
        0.001953125
      ],
      "type": "VEC2"
    },
    {
      "bufferView": 1,
      "byteOffset": 1852272,
      "componentType": 5126,
      "count": 17469,
      "max": [
        0.997317910194397,
        0.998046875
      ],
      "min": [
        0.001953125,
        0.001953125
      ],
      "type": "VEC2"
    },
    {
      "bufferView": 0,
      "byteOffset": 974388,
      "componentType": 5125,
      "count": 56403,
      "type": "SCALAR"
    }
  ],
  "asset": {
    "extras": {
      "author": "The Smithsonian Institution (https://sketchfab.com/Smithsonian)",
      "license": "CC0-1.0 (http://creativecommons.org/publicdomain/zero/1.0/)",
      "source": "https://sketchfab.com/3d-models/madrepora-cytherea-9ff5270cafce4ceab61ce84c41c26faa",
      "title": "Madrepora cytherea"
    },
    "generator": "Sketchfab-12.66.0",
    "version": "2.0"
  },
  "bufferViews": [
    {
      "buffer": 0,
      "byteLength": 1200000,
      "name": "floatBufferViews",
      "target": 34963
    },
    {
      "buffer": 0,
      "byteLength": 1992024,
      "byteOffset": 1200000,
      "byteStride": 8,
      "name": "floatBufferViews",
      "target": 34962
    },
    {
      "buffer": 0,
      "byteLength": 1992024,
      "byteOffset": 3192024,
      "byteStride": 12,
      "name": "floatBufferViews",
      "target": 34962
    },
    {
      "buffer": 0,
      "byteLength": 1328016,
      "byteOffset": 5184048,
      "byteStride": 16,
      "name": "floatBufferViews",
      "target": 34962
    }
  ],
  "buffers": [
    {
      "byteLength": 6512064,
      "uri": "scene.bin"
    }
  ],
  "images": [
    {
      "uri": "textures/default_baseColor.jpeg"
    },
    {
      "uri": "textures/default_metallicRoughness.png"
    },
    {
      "uri": "textures/default_normal.jpeg"
    }
  ],
  "materials": [
    {
      "name": "default",
      "normalTexture": {
        "index": 2,
        "texCoord": 2
      },
      "occlusionTexture": {
        "index": 1,
        "texCoord": 1
      },
      "pbrMetallicRoughness": {
        "baseColorTexture": {
          "index": 0
        },
        "metallicFactor": 0.1,
        "metallicRoughnessTexture": {
          "index": 1,
          "texCoord": 1
        },
        "roughnessFactor": 0.8
      }
    }
  ],
  "meshes": [
    {
      "name": "Object_0",
      "primitives": [
        {
          "attributes": {
            "NORMAL": 1,
            "POSITION": 0,
            "TANGENT": 2,
            "TEXCOORD_0": 3,
            "TEXCOORD_1": 4,
            "TEXCOORD_2": 5
          },
          "indices": 6,
          "material": 0,
          "mode": 4
        }
      ]
    },
    {
      "name": "Object_1",
      "primitives": [
        {
          "attributes": {
            "NORMAL": 8,
            "POSITION": 7,
            "TANGENT": 9,
            "TEXCOORD_0": 10,
            "TEXCOORD_1": 11,
            "TEXCOORD_2": 12
          },
          "indices": 13,
          "material": 0,
          "mode": 4
        }
      ]
    }
  ],
  "nodes": [
    {
      "children": [
        1
      ],
      "matrix": [
        1.0,
        0.0,
        0.0,
        0.0,
        0.0,
        2.220446049250313e-16,
        -1.0,
        0.0,
        0.0,
        1.0,
        2.220446049250313e-16,
        0.0,
        0.0,
        0.0,
        0.0,
        1.0
      ],
      "name": "Sketchfab_model"
    },
    {
      "children": [
        2
      ],
      "name": "root"
    },
    {
      "children": [
        3
      ],
      "matrix": [
        1.0,
        0.0,
        0.0,
        0.0,
        0.0,
        2.220446049250313e-16,
        1.0,
        0.0,
        0.0,
        -1.0,
        2.220446049250313e-16,
        0.0,
        0.0,
        0.0,
        0.0,
        1.0
      ],
      "name": "GLTF_SceneRootNode"
    },
    {
      "children": [
        4,
        5
      ],
      "name": "_0"
    },
    {
      "mesh": 0,
      "name": "Object_4"
    },
    {
      "mesh": 1,
      "name": "Object_5"
    }
  ],
  "samplers": [
    {
      "magFilter": 9729,
      "minFilter": 9987,
      "wrapS": 10497,
      "wrapT": 10497
    }
  ],
  "scene": 0,
  "scenes": [
    {
      "name": "Sketchfab_Scene",
      "nodes": [
        0
      ]
    }
  ],
  "textures": [
    {
      "sampler": 0,
      "source": 0
    },
    {
      "sampler": 0,
      "source": 1
    },
    {
      "sampler": 0,
      "source": 2
    }
  ]
}
