{
  "accessors": [
    {
      "bufferView": 2,
      "componentType": 5126,
      "count": 77,
      "max": [
        73.5577392578125,
        -10.178936958312988,
        77.52952575683594
      ],
      "min": [
        -78.06474304199219,
        -107.69083404541016,
        -85.21085357666016
      ],
      "type": "VEC3"
    },
    {
      "bufferView": 2,
      "byteOffset": 924,
      "componentType": 5126,
      "count": 77,
      "max": [
        0.9534618258476257,
        0.9892160296440125,
        0.9728843569755554
      ],
      "min": [
        -0.9858288764953613,
        -0.9685390591621399,
        -0.9979041814804077
      ],
      "type": "VEC3"
    },
    {
      "bufferView": 1,
      "componentType": 5126,
      "count": 77,
      "max": [
        0.0,
        0.0
      ],
      "min": [
        0.0,
        0.0
      ],
      "type": "VEC2"
    },
    {
      "bufferView": 0,
      "componentType": 5125,
      "count": 96,
      "type": "SCALAR"
    },
    {
      "bufferView": 2,
      "byteOffset": 1848,
      "componentType": 5126,
      "count": 5498,
      "max": [
        66.94013977050781,
        3.617382764816284,
        27.310611724853516
      ],
      "min": [
        -33.55373764038086,
        -18.363054275512695,
        -49.557308197021484
      ],
      "type": "VEC3"
    },
    {
      "bufferView": 2,
      "byteOffset": 67824,
      "componentType": 5126,
      "count": 5498,
      "max": [
        0.653113842010498,
        0.999984860420227,
        0.7014334797859192
      ],
      "min": [
        -0.7091829180717468,
        0.44039344787597656,
        -0.8470162749290466
      ],
      "type": "VEC3"
    },
    {
      "bufferView": 1,
      "byteOffset": 616,
      "componentType": 5126,
      "count": 5498,
      "max": [
        0.09423828125,
        0.06298828125
      ],
      "min": [
        0.0,
        0.0
      ],
      "type": "VEC2"
    },
    {
      "bufferView": 0,
      "byteOffset": 384,
      "componentType": 5125,
      "count": 32037,
      "type": "SCALAR"
    },
    {
      "bufferView": 2,
      "byteOffset": 133800,
      "componentType": 5126,
      "count": 65532,
      "max": [
        77.14778900146484,
        -11.76335620880127,
        78.0284652709961
      ],
      "min": [
        -80.38066101074219,
        -108.43136596679688,
        -79.46378326416016
      ],
      "type": "VEC3"
    },
    {
      "bufferView": 2,
      "byteOffset": 920184,
      "componentType": 5126,
      "count": 65532,
      "max": [
        0.9999092221260071,
        0.9611672163009644,
        0.9996955394744873
      ],
      "min": [
        -0.999928891658783,
        -0.9999989867210388,
        -0.9971509575843811
      ],
      "type": "VEC3"
    },
    {
      "bufferView": 1,
      "byteOffset": 44600,
      "componentType": 5126,
      "count": 65532,
      "max": [
        0.9950249791145325,
        0.9981189966201782
      ],
      "min": [
        0.0019580000080168247,
        0.3823379874229431
      ],
      "type": "VEC2"
    },
    {
      "bufferView": 0,
      "byteOffset": 128532,
      "componentType": 5125,
      "count": 372909,
      "type": "SCALAR"
    },
    {
      "bufferView": 2,
      "byteOffset": 1706568,
      "componentType": 5126,
      "count": 65532,
      "max": [
        82.0856704711914,
        1.5224170684814453,
        78.50125885009766
      ],
      "min": [
        -80.56352233886719,
        -108.35443115234375,
        -87.58138275146484
      ],
      "type": "VEC3"
    },
    {
      "bufferView": 2,
      "byteOffset": 2492952,
      "componentType": 5126,
      "count": 65532,
      "max": [
        0.9999855756759644,
        0.9915164113044739,
        0.9999842643737793
      ],
      "min": [
        -0.9999926686286926,
        -0.99994957447052,
        -0.9999924898147583
      ],
      "type": "VEC3"
    },
    {
      "bufferView": 1,
      "byteOffset": 568856,
      "componentType": 5126,
      "count": 65532,
      "max": [
        0.995182991027832,
        0.9981679916381836
      ],
      "min": [
        0.00184599997010082,
        0.2362540066242218
      ],
      "type": "VEC2"
    },
    {
      "bufferView": 0,
      "byteOffset": 1620168,
      "componentType": 5125,
      "count": 362115,
      "type": "SCALAR"
    },
    {
      "bufferView": 2,
      "byteOffset": 3279336,
      "componentType": 5126,
      "count": 25365,
      "max": [
        77.2896957397461,
        -4.002111434936523,
        76.35713195800781
      ],
      "min": [
        -78.35688781738281,
        -108.09334564208984,
        -87.41387176513672
      ],
      "type": "VEC3"
    },
    {
      "bufferView": 2,
      "byteOffset": 3583716,
      "componentType": 5126,
      "count": 25365,
      "max": [
        0.9987331032752991,
        0.9943156242370605,
        0.9996389746665955
      ],
      "min": [
        -0.9999249577522278,
        -0.9999992847442627,
        -0.9999935626983643
      ],
      "type": "VEC3"
    },
    {
      "bufferView": 1,
      "byteOffset": 1093112,
      "componentType": 5126,
      "count": 25365,
      "max": [
        0.9944900274276733,
        0.9981669783592224
      ],
      "min": [
        0.001867000013589859,
        0.358146995306015
      ],
      "type": "VEC2"
    },
    {
      "bufferView": 0,
      "byteOffset": 3068628,
      "componentType": 5125,
      "count": 135135,
      "type": "SCALAR"
    }
  ],
  "asset": {
    "extras": {
      "author": "TheRLab (https://sketchfab.com/therlab)",
      "license": "CC-BY-4.0 (http://creativecommons.org/licenses/by/4.0/)",
      "source": "https://sketchfab.com/3d-models/platygyra-sp-skeleton-1a15076817094dd195dea9f97337b594",
      "title": "Platygyra sp. skeleton"
    },
    "generator": "Sketchfab-12.65.0",
    "version": "2.0"
  },
  "bufferViews": [
    {
      "buffer": 0,
      "byteLength": 3609168,
      "name": "floatBufferViews",
      "target": 34963
    },
    {
      "buffer": 0,
      "byteLength": 1296032,
      "byteOffset": 3609168,
      "byteStride": 8,
      "name": "floatBufferViews",
      "target": 34962
    },
    {
      "buffer": 0,
      "byteLength": 3888096,
      "byteOffset": 4905200,
      "byteStride": 12,
      "name": "floatBufferViews",
      "target": 34962
    }
  ],
  "buffers": [
    {
      "byteLength": 8793296,
      "uri": "scene.bin"
    }
  ],
  "images": [
    {
      "uri": "textures/GeneratedMat2_baseColor.png"
    },
    {
      "uri": "textures/Texture_0_baseColor.jpeg"
    }
  ],
  "materials": [
    {
      "doubleSided": true,
      "name": "GeneratedMat2",
      "pbrMetallicRoughness": {
        "baseColorTexture": {
          "index": 0
        },
        "metallicFactor": 0.0,
        "roughnessFactor": 0.6
      }
    },
    {
      "doubleSided": true,
      "name": "Texture_0",
      "pbrMetallicRoughness": {
        "baseColorTexture": {
          "index": 1
        },
        "metallicFactor": 0.0,
        "roughnessFactor": 0.6
      }
    }
  ],
  "meshes": [
    {
      "name": "Object_0",
      "primitives": [
        {
          "attributes": {
            "NORMAL": 1,
            "POSITION": 0,
            "TEXCOORD_0": 2
          },
          "indices": 3,
          "material": 0,
          "mode": 4
        }
      ]
    },
    {
      "name": "Object_1",
      "primitives": [
        {
          "attributes": {
            "NORMAL": 5,
            "POSITION": 4,
            "TEXCOORD_0": 6
          },
          "indices": 7,
          "material": 0,
          "mode": 4
        }
      ]
    },
    {
      "name": "Object_2",
      "primitives": [
        {
          "attributes": {
            "NORMAL": 9,
            "POSITION": 8,
            "TEXCOORD_0": 10
          },
          "indices": 11,
          "material": 1,
          "mode": 4
        }
      ]
    },
    {
      "name": "Object_3",
      "primitives": [
        {
          "attributes": {
            "NORMAL": 13,
            "POSITION": 12,
            "TEXCOORD_0": 14
          },
          "indices": 15,
          "material": 1,
          "mode": 4
        }
      ]
    },
    {
      "name": "Object_4",
      "primitives": [
        {
          "attributes": {
            "NORMAL": 17,
            "POSITION": 16,
            "TEXCOORD_0": 18
          },
          "indices": 19,
          "material": 1,
          "mode": 4
        }
      ]
    }
  ],
  "nodes": [
    {
      "children": [
        1
      ],
      "matrix": [
        1.0,
        6.661338147750939e-16,
        1.4791141972893971e-31,
        0.0,
        6.661338147750939e-16,
        -1.0,
        -2.220446049250313e-16,
        0.0,
        0.0,
        2.220446049250313e-16,
        -1.0,
        0.0,
        3.8191672047105385e-14,
        -61.76515579223634,
        52.85399246215819,
        1.0
      ],
      "name": "Sketchfab_model"
    },
    {
      "children": [
        2,
        3,
        4,
        5,
        6
      ],
      "name": "Platygyra.obj.cleaner.gles"
    },
    {
      "mesh": 0,
      "name": "Object_2"
    },
    {
      "mesh": 1,
      "name": "Object_3"
    },
    {
      "mesh": 2,
      "name": "Object_4"
    },
    {
      "mesh": 3,
      "name": "Object_5"
    },
    {
      "mesh": 4,
      "name": "Object_6"
    }
  ],
  "samplers": [
    {
      "magFilter": 9729,
      "minFilter": 9987,
      "wrapS": 10497,
      "wrapT": 10497
    }
  ],
  "scene": 0,
  "scenes": [
    {
      "name": "Sketchfab_Scene",
      "nodes": [
        0
      ]
    }
  ],
  "textures": [
    {
      "sampler": 0,
      "source": 0
    },
    {
      "sampler": 0,
      "source": 1
    }
  ]
}
