{
  "accessors": [
    {
      "bufferView": 2,
      "componentType": 5126,
      "count": 65532,
      "max": [
        4.2731032371521,
        -1.280236005783081,
        3.67999005317688
      ],
      "min": [
        -3.6777191162109375,
        -8.292830467224121,
        -4.040493011474609
      ],
      "type": "VEC3"
    },
    {
      "bufferView": 2,
      "byteOffset": 786384,
      "componentType": 5126,
      "count": 65532,
      "max": [
        0.9999381303787231,
        0.9993215799331665,
        0.9999829530715942
      ],
      "min": [
        -0.9999942779541016,
        -0.9999809861183167,
        -0.9999824166297913
      ],
      "type": "VEC3"
    },
    {
      "bufferView": 1,
      "componentType": 5126,
      "count": 65532,
      "max": [
        0.9980469942092896,
        0.9980369806289673
      ],
      "min": [
        0.0019529999699443579,
        0.085377998650074
      ],
      "type": "VEC2"
    },
    {
      "bufferView": 0,
      "componentType": 5125,
      "count": 328299,
      "type": "SCALAR"
    },
    {
      "bufferView": 2,
      "byteOffset": 1572768,
      "componentType": 5126,
      "count": 65532,
      "max": [
        2.823132038116455,
        -1.0942269563674927,
        3.7464590072631836
      ],
      "min": [
        -4.2731032371521,
        -7.619851112365723,
        -4.410489082336426
      ],
      "type": "VEC3"
    },
    {
      "bufferView": 2,
      "byteOffset": 2359152,
      "componentType": 5126,
      "count": 65532,
      "max": [
        0.9997107982635498,
        0.9999986290931702,
        0.9999914169311523
      ],
      "min": [
        -0.9999522566795349,
        -0.9999862909317017,
        -0.9999379515647888
      ],
      "type": "VEC3"
    },
    {
      "bufferView": 1,
      "byteOffset": 524256,
      "componentType": 5126,
      "count": 65532,
      "max": [
        0.9980469942092896,
        0.9970560073852539
      ],
      "min": [
        0.0019529999699443579,
        0.0019630000460892916
      ],
      "type": "VEC2"
    },
    {
      "bufferView": 0,
      "byteOffset": 1313196,
      "componentType": 5125,
      "count": 332754,
      "type": "SCALAR"
    },
    {
      "bufferView": 2,
      "byteOffset": 3145536,
      "componentType": 5126,
      "count": 65532,
      "max": [
        3.5670299530029297,
        -0.8476390242576599,
        4.267743110656738
      ],
      "min": [
        -2.0319631099700928,
        -8.258291244506836,
        -4.57056999206543
      ],
      "type": "VEC3"
    },
    {
      "bufferView": 2,
      "byteOffset": 3931920,
      "componentType": 5126,
      "count": 65532,
      "max": [
        0.9999974966049194,
        0.9999994039535522,
        0.9999561905860901
      ],
      "min": [
        -0.9999849200248718,
        -0.9999997615814209,
        -0.9999659657478333
      ],
      "type": "VEC3"
    },
    {
      "bufferView": 1,
      "byteOffset": 1048512,
      "componentType": 5126,
      "count": 65532,
      "max": [
        0.9980469942092896,
        0.9980369806289673
      ],
      "min": [
        0.0019529999699443579,
        0.0019630000460892916
      ],
      "type": "VEC2"
    },
    {
      "bufferView": 0,
      "byteOffset": 2644212,
      "componentType": 5125,
      "count": 341043,
      "type": "SCALAR"
    },
    {
      "bufferView": 2,
      "byteOffset": 4718304,
      "componentType": 5126,
      "count": 65532,
      "max": [
        2.703360080718994,
        -0.7540029883384705,
        4.57056999206543
      ],
      "min": [
        -3.85315203666687,
        -5.3716840744018555,
        -4.454794883728027
      ],
      "type": "VEC3"
    },
    {
      "bufferView": 2,
      "byteOffset": 5504688,
      "componentType": 5126,
      "count": 65532,
      "max": [
        0.999991238117218,
        0.9999940395355225,
        0.999990701675415
      ],
      "min": [
        -0.9999986886978149,
        -0.9999358654022217,
        -0.9999731183052063
      ],
      "type": "VEC3"
    },
    {
      "bufferView": 1,
      "byteOffset": 1572768,
      "componentType": 5126,
      "count": 65532,
      "max": [
        0.9980469942092896,
        0.9980369806289673
      ],
      "min": [
        0.0019529999699443579,
        0.0019630000460892916
      ],
      "type": "VEC2"
    },
    {
      "bufferView": 0,
      "byteOffset": 4008384,
      "componentType": 5125,
      "count": 339462,
      "type": "SCALAR"
    },
    {
      "bufferView": 2,
      "byteOffset": 6291072,
      "componentType": 5126,
      "count": 33302,
      "max": [
        4.2731032371521,
        -0.8999009728431702,
        3.678030014038086
      ],
      "min": [
        -4.249907970428467,
        -5.689235210418701,
        -1.076645016670227
      ],
      "type": "VEC3"
    },
    {
      "bufferView": 2,
      "byteOffset": 6690696,
      "componentType": 5126,
      "count": 33302,
      "max": [
        0.9999608993530273,
        0.9999838471412659,
        0.9999200105667114
      ],
      "min": [
        -0.9999952912330627,
        -0.999980092048645,
        -0.9994972348213196
      ],
      "type": "VEC3"
    },
    {
      "bufferView": 1,
      "byteOffset": 2097024,
      "componentType": 5126,
      "count": 33302,
      "max": [
        0.9980469942092896,
        0.9970560073852539
      ],
      "min": [
        0.0019529999699443579,
        0.0019630000460892916
      ],
      "type": "VEC2"
    },
    {
      "bufferView": 0,
      "byteOffset": 5366232,
      "componentType": 5125,
      "count": 169104,
      "type": "SCALAR"
    }
  ],
  "asset": {
    "extras": {
      "author": "thehydrous (https://sketchfab.com/thehydro.us)",
      "license": "CC-BY-NC-SA-4.0 (http://creativecommons.org/licenses/by-nc-sa/4.0/)",
      "source": "https://sketchfab.com/3d-models/pavona-frondifera-9eaf77a006a54d03a91f6b4995bf7eab",
      "title": "Pavona frondifera"
    },
    "generator": "Sketchfab-12.68.0",
    "version": "2.0"
  },
  "bufferViews": [
    {
      "buffer": 0,
      "byteLength": 6042648,
      "name": "floatBufferViews",
      "target": 34963
    },
    {
      "buffer": 0,
      "byteLength": 2363440,
      "byteOffset": 6042648,
      "byteStride": 8,
      "name": "floatBufferViews",
      "target": 34962
    },
    {
      "buffer": 0,
      "byteLength": 7090320,
      "byteOffset": 8406088,
      "byteStride": 12,
      "name": "floatBufferViews",
      "target": 34962
    }
  ],
  "buffers": [
    {
      "byteLength": 15496408,
      "uri": "scene.bin"
    }
  ],
  "extensionsUsed": [
    "KHR_materials_unlit"
  ],
  "images": [
    {
      "uri": "textures/Material_0_baseColor.jpeg"
    }
  ],
  "materials": [
    {
      "doubleSided": true,
      "extensions": {
        "KHR_materials_unlit": {}
      },
      "name": "Material_0",
      "pbrMetallicRoughness": {
        "baseColorTexture": {
          "index": 0
        },
        "metallicFactor": 0.0
      }
    }
  ],
  "meshes": [
    {
      "name": "Object_0",
      "primitives": [
        {
          "attributes": {
            "NORMAL": 1,
            "POSITION": 0,
            "TEXCOORD_0": 2
          },
          "indices": 3,
          "material": 0,
          "mode": 4
        }
      ]
    },
    {
      "name": "Object_1",
      "primitives": [
        {
          "attributes": {
            "NORMAL": 5,
            "POSITION": 4,
            "TEXCOORD_0": 6
          },
          "indices": 7,
          "material": 0,
          "mode": 4
        }
      ]
    },
    {
      "name": "Object_2",
      "primitives": [
        {
          "attributes": {
            "NORMAL": 9,
            "POSITION": 8,
            "TEXCOORD_0": 10
          },
          "indices": 11,
          "material": 0,
          "mode": 4
        }
      ]
    },
    {
      "name": "Object_3",
      "primitives": [
        {
          "attributes": {
            "NORMAL": 13,
            "POSITION": 12,
            "TEXCOORD_0": 14
          },
          "indices": 15,
          "material": 0,
          "mode": 4
        }
      ]
    },
    {
      "name": "Object_4",
      "primitives": [
        {
          "attributes": {
            "NORMAL": 17,
            "POSITION": 16,
            "TEXCOORD_0": 18
          },
          "indices": 19,
          "material": 0,
          "mode": 4
        }
      ]
    }
  ],
  "nodes": [
    {
      "children": [
        1
      ],
      "matrix": [
        1.0,
        0.0,
        0.0,
        0.0,
        0.0,
        2.220446049250313e-16,
        -1.0,
        0.0,
        0.0,
        1.0,
        2.220446049250313e-16,
        0.0,
        0.0,
        0.0,
        0.0,
        1.0
      ],
      "name": "Sketchfab_model"
    },
    {
      "children": [
        2,
        3,
        4,
        5,
        6
      ],
      "name": "CAS064618Pfrondifera.obj.cleaner.materialmerger.gles"
    },
    {
      "mesh": 0,
      "name": "Object_2"
    },
    {
      "mesh": 1,
      "name": "Object_3"
    },
    {
      "mesh": 2,
      "name": "Object_4"
    },
    {
      "mesh": 3,
      "name": "Object_5"
    },
    {
      "mesh": 4,
      "name": "Object_6"
    }
  ],
  "samplers": [
    {
      "magFilter": 9729,
      "minFilter": 9987,
      "wrapS": 10497,
      "wrapT": 10497
    }
  ],
  "scene": 0,
  "scenes": [
    {
      "name": "Sketchfab_Scene",
      "nodes": [
        0
      ]
    }
  ],
  "textures": [
    {
      "sampler": 0,
      "source": 0
    }
  ]
}
