{
  "accessors": [
    {
      "bufferView": 2,
      "componentType": 5126,
      "count": 65532,
      "max": [
        19.267730712890625,
        8.041622161865234,
        11.776098251342773
      ],
      "min": [
        0.0,
        0.0,
        0.0
      ],
      "type": "VEC3"
    },
    {
      "bufferView": 2,
      "byteOffset": 786384,
      "componentType": 5126,
      "count": 65532,
      "max": [
        0.9999673962593079,
        0.999462366104126,
        0.999904215335846
      ],
      "min": [
        -0.9999350309371948,
        -0.9999950528144836,
        -0.9999721646308899
      ],
      "type": "VEC3"
    },
    {
      "bufferView": 1,
      "componentType": 5126,
      "count": 65532,
      "max": [
        0.9955270290374756,
        0.9978529810905457
      ],
      "min": [
        0.07097800076007843,
        0.0036520001012831926
      ],
      "type": "VEC2"
    },
    {
      "bufferView": 0,
      "componentType": 5125,
      "count": 346659,
      "type": "SCALAR"
    },
    {
      "bufferView": 2,
      "byteOffset": 1572768,
      "componentType": 5126,
      "count": 65532,
      "max": [
        19.70844078063965,
        6.6077141761779785,
        17.033742904663086
      ],
      "min": [
        0.1764688491821289,
        0.33205413818359375,
        1.5213813781738281
      ],
      "type": "VEC3"
    },
    {
      "bufferView": 2,
      "byteOffset": 2359152,
      "componentType": 5126,
      "count": 65532,
      "max": [
        0.9998638033866882,
        0.9996967911720276,
        0.9998493790626526
      ],
      "min": [
        -0.9981483817100525,
        -0.9999914169311523,
        -0.9999402761459351
      ],
      "type": "VEC3"
    },
    {
      "bufferView": 1,
      "byteOffset": 524256,
      "componentType": 5126,
      "count": 65532,
      "max": [
        0.9921730160713196,
        0.9998670220375061
      ],
      "min": [
        -0.007910000160336494,
        0.004495999775826931
      ],
      "type": "VEC2"
    },
    {
      "bufferView": 0,
      "byteOffset": 1386636,
      "componentType": 5125,
      "count": 270864,
      "type": "SCALAR"
    },
    {
      "bufferView": 2,
      "byteOffset": 3145536,
      "componentType": 5126,
      "count": 65532,
      "max": [
        19.389705657958984,
        9.769317626953125,
        19.054460525512695
      ],
      "min": [
        0.8002176284790039,
        0.7919373512268066,
        1.2895088195800781
      ],
      "type": "VEC3"
    },
    {
      "bufferView": 2,
      "byteOffset": 3931920,
      "componentType": 5126,
      "count": 65532,
      "max": [
        0.9997657537460327,
        0.999911367893219,
        0.9999403357505798
      ],
      "min": [
        -0.9999561309814453,
        -0.9999926686286926,
        -0.9999756813049316
      ],
      "type": "VEC3"
    },
    {
      "bufferView": 1,
      "byteOffset": 1048512,
      "componentType": 5126,
      "count": 65532,
      "max": [
        0.9920330047607422,
        0.999767005443573
      ],
      "min": [
        0.0018769999733194709,
        0.0039079999551177025
      ],
      "type": "VEC2"
    },
    {
      "bufferView": 0,
      "byteOffset": 2470092,
      "componentType": 5125,
      "count": 302079,
      "type": "SCALAR"
    },
    {
      "bufferView": 2,
      "byteOffset": 4718304,
      "componentType": 5126,
      "count": 65532,
      "max": [
        19.523128509521484,
        11.308520317077637,
        19.0667724609375
      ],
      "min": [
        1.5079002380371094,
        0.9808802604675293,
        1.5682201385498047
      ],
      "type": "VEC3"
    },
    {
      "bufferView": 2,
      "byteOffset": 5504688,
      "componentType": 5126,
      "count": 65532,
      "max": [
        0.9996667504310608,
        0.9998945593833923,
        0.9996401071548462
      ],
      "min": [
        -0.9999666810035706,
        -0.9999881386756897,
        -0.9999176859855652
      ],
      "type": "VEC3"
    },
    {
      "bufferView": 1,
      "byteOffset": 1572768,
      "componentType": 5126,
      "count": 65532,
      "max": [
        0.9921860098838806,
        0.9995669722557068
      ],
      "min": [
        0.0011320000048726797,
        0.003826000029221177
      ],
      "type": "VEC2"
    },
    {
      "bufferView": 0,
      "byteOffset": 3678408,
      "componentType": 5125,
      "count": 289305,
      "type": "SCALAR"
    },
    {
      "bufferView": 2,
      "byteOffset": 6291072,
      "componentType": 5126,
      "count": 18970,
      "max": [
        19.694904327392578,
        7.7689361572265625,
        14.791068077087402
      ],
      "min": [
        1.040435791015625,
        0.9295182228088379,
        1.513484001159668
      ],
      "type": "VEC3"
    },
    {
      "bufferView": 2,
      "byteOffset": 6518712,
      "componentType": 5126,
      "count": 18970,
      "max": [
        0.9998583197593689,
        0.999911367893219,
        0.9998493790626526
      ],
      "min": [
        -0.9935508370399475,
        -0.9999632239341736,
        -0.9997190833091736
      ],
      "type": "VEC3"
    },
    {
      "bufferView": 1,
      "byteOffset": 2097024,
      "componentType": 5126,
      "count": 18970,
      "max": [
        0.9904710054397583,
        0.9990599751472473
      ],
      "min": [
        0.0014720000326633453,
        0.060920000076293945
      ],
      "type": "VEC2"
    },
    {
      "bufferView": 0,
      "byteOffset": 4835628,
      "componentType": 5125,
      "count": 63741,
      "type": "SCALAR"
    }
  ],
  "asset": {
    "extras": {
      "author": "California Academy of Sciences Viz Studio (https://sketchfab.com/vizstudio)",
      "license": "CC-BY-NC-ND-4.0 (http://creativecommons.org/licenses/by-nc-nd/4.0/)",
      "source": "https://sketchfab.com/3d-models/echinophyllia-sp-f530e005c95b476d9fa3f6f974df387d",
      "title": "Echinophyllia sp."
    },
    "generator": "Sketchfab-12.65.0",
    "version": "2.0"
  },
  "bufferViews": [
    {
      "buffer": 0,
      "byteLength": 5090592,
      "name": "floatBufferViews",
      "target": 34963
    },
    {
      "buffer": 0,
      "byteLength": 2248784,
      "byteOffset": 5090592,
      "byteStride": 8,
      "name": "floatBufferViews",
      "target": 34962
    },
    {
      "buffer": 0,
      "byteLength": 6746352,
      "byteOffset": 7339376,
      "byteStride": 12,
      "name": "floatBufferViews",
      "target": 34962
    }
  ],
  "buffers": [
    {
      "byteLength": 14085728,
      "uri": "scene.bin"
    }
  ],
  "extensionsUsed": [
    "KHR_materials_unlit"
  ],
  "images": [
    {
      "uri": "textures/model_baseColor.jpeg"
    }
  ],
  "materials": [
    {
      "doubleSided": true,
      "extensions": {
        "KHR_materials_unlit": {}
      },
      "name": "model",
      "pbrMetallicRoughness": {
        "baseColorTexture": {
          "index": 0
        },
        "metallicFactor": 0.0
      }
    }
  ],
  "meshes": [
    {
      "name": "Object_0",
      "primitives": [
        {
          "attributes": {
            "NORMAL": 1,
            "POSITION": 0,
            "TEXCOORD_0": 2
          },
          "indices": 3,
          "material": 0,
          "mode": 4
        }
      ]
    },
    {
      "name": "Object_1",
      "primitives": [
        {
          "attributes": {
            "NORMAL": 5,
            "POSITION": 4,
            "TEXCOORD_0": 6
          },
          "indices": 7,
          "material": 0,
          "mode": 4
        }
      ]
    },
    {
      "name": "Object_2",
      "primitives": [
        {
          "attributes": {
            "NORMAL": 9,
            "POSITION": 8,
            "TEXCOORD_0": 10
          },
          "indices": 11,
          "material": 0,
          "mode": 4
        }
      ]
    },
    {
      "name": "Object_3",
      "primitives": [
        {
          "attributes": {
            "NORMAL": 13,
            "POSITION": 12,
            "TEXCOORD_0": 14
          },
          "indices": 15,
          "material": 0,
          "mode": 4
        }
      ]
    },
    {
      "name": "Object_4",
      "primitives": [
        {
          "attributes": {
            "NORMAL": 17,
            "POSITION": 16,
            "TEXCOORD_0": 18
          },
          "indices": 19,
          "material": 0,
          "mode": 4
        }
      ]
    }
  ],
  "nodes": [
    {
      "children": [
        1
      ],
      "matrix": [
        65.58376117718308,
        -15.65299945850461,
        -4.411385824410184e-15,
        0.0,
        -13.80711126498204,
        -57.84976484010986,
        31.764992814699767,
        0.0,
        -7.374283696777752,
        -30.897162829474823,
        -59.474627913945376,
        0.0,
        -1.1045153769373428e-06,
        2.6079119379573925e-06,
        2.000241875066422e-05,
        1.0
      ],
      "name": "Sketchfab_model"
    },
    {
      "children": [
        2
      ],
      "matrix": [
        1.0,
        0.0,
        0.0,
        0.0,
        0.0,
        1.0,
        0.0,
        0.0,
        0.0,
        0.0,
        1.0,
        0.0,
        -9.854220390319824,
        -5.654260158538818,
        -9.53338623046875,
        1.0
      ],
      "name": "model.obj.cleaner.materialmerger.gles"
    },
    {
      "children": [
        3,
        4,
        5,
        6,
        7
      ],
      "name": "Object_2"
    },
    {
      "mesh": 0,
      "name": "Object_3"
    },
    {
      "mesh": 1,
      "name": "Object_4"
    },
    {
      "mesh": 2,
      "name": "Object_5"
    },
    {
      "mesh": 3,
      "name": "Object_6"
    },
    {
      "mesh": 4,
      "name": "Object_7"
    }
  ],
  "samplers": [
    {
      "magFilter": 9729,
      "minFilter": 9987,
      "wrapS": 10497,
      "wrapT": 10497
    }
  ],
  "scene": 0,
  "scenes": [
    {
      "name": "Sketchfab_Scene",
      "nodes": [
        0
      ]
    }
  ],
  "textures": [
    {
      "sampler": 0,
      "source": 0
    }
  ]
}
