{
  "accessors": [
    {
      "bufferView": 2,
      "componentType": 5126,
      "count": 65532,
      "max": [
        19.478553771972656,
        9.383736610412598,
        10.928167343139648
      ],
      "min": [
        0.0,
        0.0,
        0.0
      ],
      "type": "VEC3"
    },
    {
      "bufferView": 2,
      "byteOffset": 786384,
      "componentType": 5126,
      "count": 65532,
      "max": [
        0.9993650913238525,
        1.0,
        0.9999629855155945
      ],
      "min": [
        -0.9998623728752136,
        -0.9999974966049194,
        -0.9999686479568481
      ],
      "type": "VEC3"
    },
    {
      "bufferView": 1,
      "componentType": 5126,
      "count": 65532,
      "max": [
        0.9991459846496582,
        0.9981269836425781
      ],
      "min": [
        0.0007319999858736992,
        0.0007489999989047647
      ],
      "type": "VEC2"
    },
    {
      "bufferView": 0,
      "componentType": 5125,
      "count": 359358,
      "type": "SCALAR"
    },
    {
      "bufferView": 2,
      "byteOffset": 1572768,
      "componentType": 5126,
      "count": 65532,
      "max": [
        21.4827823638916,
        9.383736610412598,
        10.942822456359863
      ],
      "min": [
        0.1194601058959961,
        0.0012493133544921875,
        0.0
      ],
      "type": "VEC3"
    },
    {
      "bufferView": 2,
      "byteOffset": 2359152,
      "componentType": 5126,
      "count": 65532,
      "max": [
        0.9997853636741638,
        1.0,
        0.9999913573265076
      ],
      "min": [
        -0.9999264478683472,
        -1.0,
        -0.9999901056289673
      ],
      "type": "VEC3"
    },
    {
      "bufferView": 1,
      "byteOffset": 524256,
      "componentType": 5126,
      "count": 65532,
      "max": [
        0.9992679953575134,
        0.9992510080337524
      ],
      "min": [
        0.0007319999858736992,
        0.0007489999989047647
      ],
      "type": "VEC2"
    },
    {
      "bufferView": 0,
      "byteOffset": 1437432,
      "componentType": 5125,
      "count": 361161,
      "type": "SCALAR"
    },
    {
      "bufferView": 2,
      "byteOffset": 3145536,
      "componentType": 5126,
      "count": 37159,
      "max": [
        16.761280059814453,
        9.172420501708984,
        18.684585571289063
      ],
      "min": [
        3.6728081703186035,
        0.006451606750488281,
        0.1017770767211914
      ],
      "type": "VEC3"
    },
    {
      "bufferView": 2,
      "byteOffset": 3591444,
      "componentType": 5126,
      "count": 37159,
      "max": [
        0.9999074935913086,
        0.9999992251396179,
        0.9999169707298279
      ],
      "min": [
        -0.9998753666877747,
        -0.9999922513961792,
        -0.9989208579063416
      ],
      "type": "VEC3"
    },
    {
      "bufferView": 1,
      "byteOffset": 1048512,
      "componentType": 5126,
      "count": 37159,
      "max": [
        0.9992679953575134,
        0.9982519745826721
      ],
      "min": [
        0.003783999942243099,
        0.0007489999989047647
      ],
      "type": "VEC2"
    },
    {
      "bufferView": 0,
      "byteOffset": 2882076,
      "componentType": 5125,
      "count": 205470,
      "type": "SCALAR"
    }
  ],
  "asset": {
    "extras": {
      "author": "thehydrous (https://sketchfab.com/thehydro.us)",
      "license": "CC-BY-NC-SA-4.0 (http://creativecommons.org/licenses/by-nc-sa/4.0/)",
      "source": "https://sketchfab.com/3d-models/goniastrea-pectinata-4e4726fbac59437a8a8967dcde6e4ff3",
      "title": "Goniastrea pectinata"
    },
    "generator": "Sketchfab-12.68.0",
    "version": "2.0"
  },
  "bufferViews": [
    {
      "buffer": 0,
      "byteLength": 3703956,
      "name": "floatBufferViews",
      "target": 34963
    },
    {
      "buffer": 0,
      "byteLength": 1345784,
      "byteOffset": 3703956,
      "byteStride": 8,
      "name": "floatBufferViews",
      "target": 34962
    },
    {
      "buffer": 0,
      "byteLength": 4037352,
      "byteOffset": 5049740,
      "byteStride": 12,
      "name": "floatBufferViews",
      "target": 34962
    }
  ],
  "buffers": [
    {
      "byteLength": 9087092,
      "uri": "scene.bin"
    }
  ],
  "extensionsUsed": [
    "KHR_materials_unlit"
  ],
  "images": [
    {
      "uri": "textures/Material_0_baseColor.jpeg"
    }
  ],
  "materials": [
    {
      "doubleSided": true,
      "extensions": {
        "KHR_materials_unlit": {}
      },
      "name": "Material_0",
      "pbrMetallicRoughness": {
        "baseColorTexture": {
          "index": 0
        },
        "metallicFactor": 0.0
      }
    }
  ],
  "meshes": [
    {
      "name": "Object_0",
      "primitives": [
        {
          "attributes": {
            "NORMAL": 1,
            "POSITION": 0,
            "TEXCOORD_0": 2
          },
          "indices": 3,
          "material": 0,
          "mode": 4
        }
      ]
    },
    {
      "name": "Object_1",
      "primitives": [
        {
          "attributes": {
            "NORMAL": 5,
            "POSITION": 4,
            "TEXCOORD_0": 6
          },
          "indices": 7,
          "material": 0,
          "mode": 4
        }
      ]
    },
    {
      "name": "Object_2",
      "primitives": [
        {
          "attributes": {
            "NORMAL": 9,
            "POSITION": 8,
            "TEXCOORD_0": 10
          },
          "indices": 11,
          "material": 0,
          "mode": 4
        }
      ]
    }
  ],
  "nodes": [
    {
      "children": [
        1
      ],
      "matrix": [
        1.0,
        0.0,
        0.0,
        0.0,
        0.0,
        -1.0,
        -4.440892098500626e-16,
        0.0,
        0.0,
        4.440892098500626e-16,
        -1.0,
        0.0,
        0.0,
        -7.319944858551026,
        3.0817594528198224,
        1.0
      ],
      "name": "Sketchfab_model"
    },
    {
      "children": [
        2
      ],
      "matrix": [
        1.0,
        0.0,
        0.0,
        0.0,
        0.0,
        1.0,
        0.0,
        0.0,
        0.0,
        0.0,
        1.0,
        0.0,
        -10.7413911819458,
        -10.322229385375977,
        -9.342242240905762,
        1.0
      ],
      "name": "CASIZ098538GoniastreaPectinata.obj.cleaner.materialmerger.gles"
    },
    {
      "children": [
        3,
        4,
        5
      ],
      "name": "Object_2"
    },
    {
      "mesh": 0,
      "name": "Object_3"
    },
    {
      "mesh": 1,
      "name": "Object_4"
    },
    {
      "mesh": 2,
      "name": "Object_5"
    }
  ],
  "samplers": [
    {
      "magFilter": 9729,
      "minFilter": 9987,
      "wrapS": 10497,
      "wrapT": 10497
    }
  ],
  "scene": 0,
  "scenes": [
    {
      "name": "Sketchfab_Scene",
      "nodes": [
        0
      ]
    }
  ],
  "textures": [
    {
      "sampler": 0,
      "source": 0
    }
  ]
}
