{
  "accessors": [
    {
      "bufferView": 2,
      "componentType": 5126,
      "count": 61252,
      "max": [
        0.2217330038547516,
        0.19420599937438965,
        0.11762700229883194
      ],
      "min": [
        -0.22217600047588348,
        -0.19375300407409668,
        -0.11809200048446655
      ],
      "type": "VEC3"
    },
    {
      "bufferView": 2,
      "byteOffset": 735024,
      "componentType": 5126,
      "count": 61252,
      "max": [
        0.9999896287918091,
        0.9999999403953552,
        0.9999992847442627
      ],
      "min": [
        -0.9999597072601318,
        -0.9999954104423523,
        -0.9999710917472839
      ],
      "type": "VEC3"
    },
    {
      "bufferView": 3,
      "componentType": 5126,
      "count": 61252,
      "max": [
        0.999993622303009,
        0.999909520149231,
        0.9999954700469971,
        1.0
      ],
      "min": [
        -0.999945878982544,
        -0.9999939203262329,
        -0.9999446272850037,
        -1.0
      ],
      "type": "VEC4"
    },
    {
      "bufferView": 1,
      "componentType": 5126,
      "count": 61252,
      "max": [
        0.998046875,
        0.998046875
      ],
      "min": [
        0.001953125,
        0.0037170052528381348
      ],
      "type": "VEC2"
    },
    {
      "bufferView": 1,
      "byteOffset": 490016,
      "componentType": 5126,
      "count": 61252,
      "max": [
        0.998046875,
        0.998046875
      ],
      "min": [
        0.001953125,
        0.0037170052528381348
      ],
      "type": "VEC2"
    },
    {
      "bufferView": 1,
      "byteOffset": 980032,
      "componentType": 5126,
      "count": 61252,
      "max": [
        0.998046875,
        0.998046875
      ],
      "min": [
        0.001953125,
        0.0037170052528381348
      ],
      "type": "VEC2"
    },
    {
      "bufferView": 0,
      "componentType": 5125,
      "count": 299982,
      "type": "SCALAR"
    }
  ],
  "asset": {
    "extras": {
      "author": "The Smithsonian Institution (https://sketchfab.com/Smithsonian)",
      "license": "CC0-1.0 (http://creativecommons.org/publicdomain/zero/1.0/)",
      "source": "https://sketchfab.com/3d-models/madrepora-conigera-d07474d657dd44108326a472b6484fb7",
      "title": "Madrepora conigera"
    },
    "generator": "Sketchfab-12.66.0",
    "version": "2.0"
  },
  "bufferViews": [
    {
      "buffer": 0,
      "byteLength": 1199928,
      "name": "floatBufferViews",
      "target": 34963
    },
    {
      "buffer": 0,
      "byteLength": 1470048,
      "byteOffset": 1199928,
      "byteStride": 8,
      "name": "floatBufferViews",
      "target": 34962
    },
    {
      "buffer": 0,
      "byteLength": 1470048,
      "byteOffset": 2669976,
      "byteStride": 12,
      "name": "floatBufferViews",
      "target": 34962
    },
    {
      "buffer": 0,
      "byteLength": 980032,
      "byteOffset": 4140024,
      "byteStride": 16,
      "name": "floatBufferViews",
      "target": 34962
    }
  ],
  "buffers": [
    {
      "byteLength": 5120056,
      "uri": "scene.bin"
    }
  ],
  "images": [
    {
      "uri": "textures/default_baseColor.jpeg"
    },
    {
      "uri": "textures/default_metallicRoughness.png"
    },
    {
      "uri": "textures/default_normal.jpeg"
    }
  ],
  "materials": [
    {
      "name": "default",
      "normalTexture": {
        "index": 2
      },
      "occlusionTexture": {
        "index": 1
      },
      "pbrMetallicRoughness": {
        "baseColorTexture": {
          "index": 0
        },
        "metallicFactor": 0.1,
        "metallicRoughnessTexture": {
          "index": 1
        },
        "roughnessFactor": 0.8
      }
    }
  ],
  "meshes": [
    {
      "name": "Object_0",
      "primitives": [
        {
          "attributes": {
            "NORMAL": 1,
            "POSITION": 0,
            "TANGENT": 2,
            "TEXCOORD_0": 3,
            "TEXCOORD_1": 4,
            "TEXCOORD_2": 5
          },
          "indices": 6,
          "material": 0,
          "mode": 4
        }
      ]
    }
  ],
  "nodes": [
    {
      "children": [
        1
      ],
      "matrix": [
        1.0,
        0.0,
        0.0,
        0.0,
        0.0,
        2.220446049250313e-16,
        -1.0,
        0.0,
        0.0,
        1.0,
        2.220446049250313e-16,
        0.0,
        0.0,
        0.0,
        0.0,
        1.0
      ],
      "name": "Sketchfab_model"
    },
    {
      "children": [
        2
      ],
      "name": "root"
    },
    {
      "children": [
        3
      ],
      "matrix": [
        1.0,
        0.0,
        0.0,
        0.0,
        0.0,
        2.220446049250313e-16,
        1.0,
        0.0,
        0.0,
        -1.0,
        2.220446049250313e-16,
        0.0,
        0.0,
        0.0,
        0.0,
        1.0
      ],
      "name": "GLTF_SceneRootNode"
    },
    {
      "children": [
        4
      ],
      "name": "_0"
    },
    {
      "mesh": 0,
      "name": "Object_4"
    }
  ],
  "samplers": [
    {
      "magFilter": 9729,
      "minFilter": 9987,
      "wrapS": 10497,
      "wrapT": 10497
    }
  ],
  "scene": 0,
  "scenes": [
    {
      "name": "Sketchfab_Scene",
      "nodes": [
        0
      ]
    }
  ],
  "textures": [
    {
      "sampler": 0,
      "source": 0
    },
    {
      "sampler": 0,
      "source": 1
    },
    {
      "sampler": 0,
      "source": 2
    }
  ]
}
