{
  "accessors": [
    {
      "bufferView": 2,
      "componentType": 5126,
      "count": 58353,
      "max": [
        0.03101000003516674,
        0.028210999444127083,
        0.03279900178313255
      ],
      "min": [
        -0.031014999374747276,
        -0.02817399986088276,
        -0.032816000282764435
      ],
      "type": "VEC3"
    },
    {
      "bufferView": 2,
      "byteOffset": 700236,
      "componentType": 5126,
      "count": 58353,
      "max": [
        0.9999775290489197,
        0.9999295473098755,
        0.9998078942298889
      ],
      "min": [
        -0.999991774559021,
        -0.9999955296516418,
        -0.999978244304657
      ],
      "type": "VEC3"
    },
    {
      "bufferView": 3,
      "componentType": 5126,
      "count": 58353,
      "max": [
        0.9999978542327881,
        0.999886155128479,
        0.9998475909233093,
        1.0
      ],
      "min": [
        -0.9999334812164307,
        -0.9999775886535645,
        -0.9999178647994995,
        -1.0
      ],
      "type": "VEC4"
    },
    {
      "bufferView": 1,
      "componentType": 5126,
      "count": 58353,
      "max": [
        0.998046875,
        0.998046875
      ],
      "min": [
        0.001953125,
        0.005055785179138184
      ],
      "type": "VEC2"
    },
    {
      "bufferView": 1,
      "byteOffset": 466824,
      "componentType": 5126,
      "count": 58353,
      "max": [
        0.998046875,
        0.998046875
      ],
      "min": [
        0.001953125,
        0.005055785179138184
      ],
      "type": "VEC2"
    },
    {
      "bufferView": 1,
      "byteOffset": 933648,
      "componentType": 5126,
      "count": 58353,
      "max": [
        0.998046875,
        0.998046875
      ],
      "min": [
        0.001953125,
        0.005055785179138184
      ],
      "type": "VEC2"
    },
    {
      "bufferView": 0,
      "componentType": 5125,
      "count": 300000,
      "type": "SCALAR"
    }
  ],
  "asset": {
    "extras": {
      "author": "The Smithsonian Institution (https://sketchfab.com/Smithsonian)",
      "license": "CC0-1.0 (http://creativecommons.org/publicdomain/zero/1.0/)",
      "source": "https://sketchfab.com/3d-models/stylaster-verrillii-2cf91b6d80c141dbaccb8703a1714038",
      "title": "Stylaster verrillii"
    },
    "generator": "Sketchfab-12.66.0",
    "version": "2.0"
  },
  "bufferViews": [
    {
      "buffer": 0,
      "byteLength": 1200000,
      "name": "floatBufferViews",
      "target": 34963
    },
    {
      "buffer": 0,
      "byteLength": 1400472,
      "byteOffset": 1200000,
      "byteStride": 8,
      "name": "floatBufferViews",
      "target": 34962
    },
    {
      "buffer": 0,
      "byteLength": 1400472,
      "byteOffset": 2600472,
      "byteStride": 12,
      "name": "floatBufferViews",
      "target": 34962
    },
    {
      "buffer": 0,
      "byteLength": 933648,
      "byteOffset": 4000944,
      "byteStride": 16,
      "name": "floatBufferViews",
      "target": 34962
    }
  ],
  "buffers": [
    {
      "byteLength": 4934592,
      "uri": "scene.bin"
    }
  ],
  "images": [
    {
      "uri": "textures/default_baseColor.jpeg"
    },
    {
      "uri": "textures/default_metallicRoughness.png"
    },
    {
      "uri": "textures/default_normal.jpeg"
    }
  ],
  "materials": [
    {
      "name": "default",
      "normalTexture": {
        "index": 2
      },
      "occlusionTexture": {
        "index": 1
      },
      "pbrMetallicRoughness": {
        "baseColorTexture": {
          "index": 0
        },
        "metallicFactor": 0.1,
        "metallicRoughnessTexture": {
          "index": 1
        },
        "roughnessFactor": 0.8
      }
    }
  ],
  "meshes": [
    {
      "name": "Object_0",
      "primitives": [
        {
          "attributes": {
            "NORMAL": 1,
            "POSITION": 0,
            "TANGENT": 2,
            "TEXCOORD_0": 3,
            "TEXCOORD_1": 4,
            "TEXCOORD_2": 5
          },
          "indices": 6,
          "material": 0,
          "mode": 4
        }
      ]
    }
  ],
  "nodes": [
    {
      "children": [
        1
      ],
      "matrix": [
        1.0,
        0.0,
        0.0,
        0.0,
        0.0,
        2.220446049250313e-16,
        -1.0,
        0.0,
        0.0,
        1.0,
        2.220446049250313e-16,
        0.0,
        0.0,
        0.0,
        0.0,
        1.0
      ],
      "name": "Sketchfab_model"
    },
    {
      "children": [
        2
      ],
      "name": "root"
    },
    {
      "children": [
        3
      ],
      "matrix": [
        1.0,
        0.0,
        0.0,
        0.0,
        0.0,
        2.220446049250313e-16,
        1.0,
        0.0,
        0.0,
        -1.0,
        2.220446049250313e-16,
        0.0,
        0.0,
        0.0,
        0.0,
        1.0
      ],
      "name": "GLTF_SceneRootNode"
    },
    {
      "children": [
        4
      ],
      "name": "_0"
    },
    {
      "mesh": 0,
      "name": "Object_4"
    }
  ],
  "samplers": [
    {
      "magFilter": 9729,
      "minFilter": 9987,
      "wrapS": 10497,
      "wrapT": 10497
    }
  ],
  "scene": 0,
  "scenes": [
    {
      "name": "Sketchfab_Scene",
      "nodes": [
        0
      ]
    }
  ],
  "textures": [
    {
      "sampler": 0,
      "source": 0
    },
    {
      "sampler": 0,
      "source": 1
    },
    {
      "sampler": 0,
      "source": 2
    }
  ]
}
