{
  "accessors": [
    {
      "bufferView": 2,
      "componentType": 5126,
      "count": 62646,
      "max": [
        0.05004899948835373,
        0.05021300166845322,
        0.05376899987459183
      ],
      "min": [
        -0.0500589981675148,
        -0.05020600184798241,
        -0.05388300120830536
      ],
      "type": "VEC3"
    },
    {
      "bufferView": 2,
      "byteOffset": 751752,
      "componentType": 5126,
      "count": 62646,
      "max": [
        0.9999918937683105,
        0.9999511241912842,
        0.9999603629112244
      ],
      "min": [
        -0.9998955130577087,
        -0.9999561309814453,
        -0.9999301433563232
      ],
      "type": "VEC3"
    },
    {
      "bufferView": 3,
      "componentType": 5126,
      "count": 62646,
      "max": [
        0.9998825192451477,
        0.9999144077301025,
        0.999872624874115,
        1.0
      ],
      "min": [
        -0.9999727010726929,
        -0.9999130368232727,
        -0.9999676942825317,
        -1.0
      ],
      "type": "VEC4"
    },
    {
      "bufferView": 1,
      "componentType": 5126,
      "count": 62646,
      "max": [
        0.998046875,
        0.998046875
      ],
      "min": [
        0.001953125,
        0.0034453272819519043
      ],
      "type": "VEC2"
    },
    {
      "bufferView": 1,
      "byteOffset": 501168,
      "componentType": 5126,
      "count": 62646,
      "max": [
        0.998046875,
        0.998046875
      ],
      "min": [
        0.001953125,
        0.0034453272819519043
      ],
      "type": "VEC2"
    },
    {
      "bufferView": 1,
      "byteOffset": 1002336,
      "componentType": 5126,
      "count": 62646,
      "max": [
        0.998046875,
        0.998046875
      ],
      "min": [
        0.001953125,
        0.0034453272819519043
      ],
      "type": "VEC2"
    },
    {
      "bufferView": 0,
      "componentType": 5125,
      "count": 300000,
      "type": "SCALAR"
    }
  ],
  "asset": {
    "extras": {
      "author": "The Smithsonian Institution (https://sketchfab.com/Smithsonian)",
      "license": "CC0-1.0 (http://creativecommons.org/publicdomain/zero/1.0/)",
      "source": "https://sketchfab.com/3d-models/diploria-labyrinthiformis-cbbf64f211f84a7cb62887fec11f54fe",
      "title": "Diploria labyrinthiformis"
    },
    "generator": "Sketchfab-12.66.0",
    "version": "2.0"
  },
  "bufferViews": [
    {
      "buffer": 0,
      "byteLength": 1200000,
      "name": "floatBufferViews",
      "target": 34963
    },
    {
      "buffer": 0,
      "byteLength": 1503504,
      "byteOffset": 1200000,
      "byteStride": 8,
      "name": "floatBufferViews",
      "target": 34962
    },
    {
      "buffer": 0,
      "byteLength": 1503504,
      "byteOffset": 2703504,
      "byteStride": 12,
      "name": "floatBufferViews",
      "target": 34962
    },
    {
      "buffer": 0,
      "byteLength": 1002336,
      "byteOffset": 4207008,
      "byteStride": 16,
      "name": "floatBufferViews",
      "target": 34962
    }
  ],
  "buffers": [
    {
      "byteLength": 5209344,
      "uri": "scene.bin"
    }
  ],
  "images": [
    {
      "uri": "textures/default_baseColor.jpeg"
    },
    {
      "uri": "textures/default_metallicRoughness.png"
    },
    {
      "uri": "textures/default_normal.jpeg"
    }
  ],
  "materials": [
    {
      "name": "default",
      "normalTexture": {
        "index": 2
      },
      "occlusionTexture": {
        "index": 1
      },
      "pbrMetallicRoughness": {
        "baseColorTexture": {
          "index": 0
        },
        "metallicFactor": 0.1,
        "metallicRoughnessTexture": {
          "index": 1
        },
        "roughnessFactor": 0.8
      }
    }
  ],
  "meshes": [
    {
      "name": "Object_0",
      "primitives": [
        {
          "attributes": {
            "NORMAL": 1,
            "POSITION": 0,
            "TANGENT": 2,
            "TEXCOORD_0": 3,
            "TEXCOORD_1": 4,
            "TEXCOORD_2": 5
          },
          "indices": 6,
          "material": 0,
          "mode": 4
        }
      ]
    }
  ],
  "nodes": [
    {
      "children": [
        1
      ],
      "matrix": [
        1.0,
        0.0,
        0.0,
        0.0,
        0.0,
        2.220446049250313e-16,
        -1.0,
        0.0,
        0.0,
        1.0,
        2.220446049250313e-16,
        0.0,
        0.0,
        0.0,
        0.0,
        1.0
      ],
      "name": "Sketchfab_model"
    },
    {
      "children": [
        2
      ],
      "name": "root"
    },
    {
      "children": [
        3
      ],
      "matrix": [
        1.0,
        0.0,
        0.0,
        0.0,
        0.0,
        2.220446049250313e-16,
        1.0,
        0.0,
        0.0,
        -1.0,
        2.220446049250313e-16,
        0.0,
        0.0,
        0.0,
        0.0,
        1.0
      ],
      "name": "GLTF_SceneRootNode"
    },
    {
      "children": [
        4
      ],
      "name": "_0"
    },
    {
      "mesh": 0,
      "name": "Object_4"
    }
  ],
  "samplers": [
    {
      "magFilter": 9729,
      "minFilter": 9987,
      "wrapS": 10497,
      "wrapT": 10497
    }
  ],
  "scene": 0,
  "scenes": [
    {
      "name": "Sketchfab_Scene",
      "nodes": [
        0
      ]
    }
  ],
  "textures": [
    {
      "sampler": 0,
      "source": 0
    },
    {
      "sampler": 0,
      "source": 1
    },
    {
      "sampler": 0,
      "source": 2
    }
  ]
}
