{
  "accessors": [
    {
      "bufferView": 2,
      "componentType": 5126,
      "count": 55796,
      "max": [
        0.05088299885392189,
        0.06787800043821335,
        0.05023600161075592
      ],
      "min": [
        -0.05087999999523163,
        -0.06790799647569656,
        -0.05035499855875969
      ],
      "type": "VEC3"
    },
    {
      "bufferView": 2,
      "byteOffset": 669552,
      "componentType": 5126,
      "count": 55796,
      "max": [
        0.9999996423721313,
        0.9999993443489075,
        0.9999987483024597
      ],
      "min": [
        -0.9999924898147583,
        -1.0,
        -0.9999896287918091
      ],
      "type": "VEC3"
    },
    {
      "bufferView": 3,
      "componentType": 5126,
      "count": 55796,
      "max": [
        0.9999958872795105,
        0.9999611377716064,
        0.9999988079071045,
        1.0
      ],
      "min": [
        -0.9999961256980896,
        -0.9999967217445374,
        -0.999720573425293,
        -1.0
      ],
      "type": "VEC4"
    },
    {
      "bufferView": 1,
      "componentType": 5126,
      "count": 55796,
      "max": [
        0.998046875,
        0.998046875
      ],
      "min": [
        0.001953125,
        0.005964994430541992
      ],
      "type": "VEC2"
    },
    {
      "bufferView": 1,
      "byteOffset": 446368,
      "componentType": 5126,
      "count": 55796,
      "max": [
        0.998046875,
        0.998046875
      ],
      "min": [
        0.001953125,
        0.005964994430541992
      ],
      "type": "VEC2"
    },
    {
      "bufferView": 1,
      "byteOffset": 892736,
      "componentType": 5126,
      "count": 55796,
      "max": [
        0.998046875,
        0.998046875
      ],
      "min": [
        0.001953125,
        0.005964994430541992
      ],
      "type": "VEC2"
    },
    {
      "bufferView": 0,
      "componentType": 5125,
      "count": 300000,
      "type": "SCALAR"
    }
  ],
  "asset": {
    "extras": {
      "author": "The Smithsonian Institution (https://sketchfab.com/Smithsonian)",
      "license": "CC0-1.0 (http://creativecommons.org/publicdomain/zero/1.0/)",
      "source": "https://sketchfab.com/3d-models/goniopora-columna-6b652ae52c4d4232b26cfb5b900f7d8a",
      "title": "Goniopora columna"
    },
    "generator": "Sketchfab-12.66.0",
    "version": "2.0"
  },
  "bufferViews": [
    {
      "buffer": 0,
      "byteLength": 1200000,
      "name": "floatBufferViews",
      "target": 34963
    },
    {
      "buffer": 0,
      "byteLength": 1339104,
      "byteOffset": 1200000,
      "byteStride": 8,
      "name": "floatBufferViews",
      "target": 34962
    },
    {
      "buffer": 0,
      "byteLength": 1339104,
      "byteOffset": 2539104,
      "byteStride": 12,
      "name": "floatBufferViews",
      "target": 34962
    },
    {
      "buffer": 0,
      "byteLength": 892736,
      "byteOffset": 3878208,
      "byteStride": 16,
      "name": "floatBufferViews",
      "target": 34962
    }
  ],
  "buffers": [
    {
      "byteLength": 4770944,
      "uri": "scene.bin"
    }
  ],
  "images": [
    {
      "uri": "textures/default_baseColor.jpeg"
    },
    {
      "uri": "textures/default_metallicRoughness.png"
    },
    {
      "uri": "textures/default_normal.jpeg"
    }
  ],
  "materials": [
    {
      "name": "default",
      "normalTexture": {
        "index": 2
      },
      "occlusionTexture": {
        "index": 1
      },
      "pbrMetallicRoughness": {
        "baseColorTexture": {
          "index": 0
        },
        "metallicFactor": 0.1,
        "metallicRoughnessTexture": {
          "index": 1
        },
        "roughnessFactor": 0.8
      }
    }
  ],
  "meshes": [
    {
      "name": "Object_0",
      "primitives": [
        {
          "attributes": {
            "NORMAL": 1,
            "POSITION": 0,
            "TANGENT": 2,
            "TEXCOORD_0": 3,
            "TEXCOORD_1": 4,
            "TEXCOORD_2": 5
          },
          "indices": 6,
          "material": 0,
          "mode": 4
        }
      ]
    }
  ],
  "nodes": [
    {
      "children": [
        1
      ],
      "matrix": [
        1.0,
        0.0,
        0.0,
        0.0,
        0.0,
        2.220446049250313e-16,
        -1.0,
        0.0,
        0.0,
        1.0,
        2.220446049250313e-16,
        0.0,
        0.0,
        0.0,
        0.0,
        1.0
      ],
      "name": "Sketchfab_model"
    },
    {
      "children": [
        2
      ],
      "name": "root"
    },
    {
      "children": [
        3
      ],
      "matrix": [
        1.0,
        0.0,
        0.0,
        0.0,
        0.0,
        2.220446049250313e-16,
        1.0,
        0.0,
        0.0,
        -1.0,
        2.220446049250313e-16,
        0.0,
        0.0,
        0.0,
        0.0,
        1.0
      ],
      "name": "GLTF_SceneRootNode"
    },
    {
      "children": [
        4
      ],
      "name": "_0"
    },
    {
      "mesh": 0,
      "name": "Object_4"
    }
  ],
  "samplers": [
    {
      "magFilter": 9729,
      "minFilter": 9987,
      "wrapS": 10497,
      "wrapT": 10497
    }
  ],
  "scene": 0,
  "scenes": [
    {
      "name": "Sketchfab_Scene",
      "nodes": [
        0
      ]
    }
  ],
  "textures": [
    {
      "sampler": 0,
      "source": 0
    },
    {
      "sampler": 0,
      "source": 1
    },
    {
      "sampler": 0,
      "source": 2
    }
  ]
}
